<svg width="37" height="35" viewBox="0 0 37 35" fill="none" xmlns="http://www.w3.org/2000/svg">
<path d="M10.7983 0L11.5923 9.90868L0 8.94977L9.0515 16.3014L0 21.895L13.3391 23.1735L11.5923 30.5251L19.3734 24.7717L27.1545 35L25.7253 21.895L33.6652 24.7717L28.9013 16.3014L37 9.90868H26.3605L27.9485 0L19.3734 7.03196L10.7983 0Z" fill="#FF0000"/>
<path d="M13.7949 11.873C13.7168 12.1582 13.6777 12.4062 13.6777 12.6172C13.6777 12.7266 13.666 12.8965 13.6426 13.127C13.623 13.3535 13.6133 13.5215 13.6133 13.6309C13.6133 14.002 13.5938 14.5527 13.5547 15.2832C13.5156 16.0137 13.4961 16.5645 13.4961 16.9355C13.4961 17.2207 13.5176 17.6465 13.5605 18.2129C13.6035 18.7793 13.625 19.2051 13.625 19.4902C13.625 19.7051 13.5488 19.8867 13.3965 20.0352C13.2441 20.1836 13.0547 20.2578 12.8281 20.2578C12.5977 20.2578 12.3984 20.1836 12.2305 20.0352C12.0625 19.8906 11.9785 19.7129 11.9785 19.502C11.9785 19.2168 11.9648 18.7891 11.9375 18.2188C11.9141 17.6484 11.9023 17.2207 11.9023 16.9355C11.9023 16.7129 11.9062 16.5156 11.9141 16.3438C11.3008 16.3711 10.543 16.4668 9.64062 16.6309C8.89062 16.7676 8.14062 16.9062 7.39062 17.0469C7.38281 17.3125 7.35547 17.7559 7.30859 18.377C7.26953 18.9238 7.25 19.3711 7.25 19.7188C7.25 19.9336 7.17383 20.1152 7.02148 20.2637C6.86914 20.4121 6.67969 20.4863 6.45312 20.4863C6.22656 20.4863 6.03711 20.4121 5.88477 20.2637C5.73242 20.1152 5.65625 19.9336 5.65625 19.7188C5.65625 19.3242 5.68945 18.7344 5.75586 17.9492C5.82617 17.1641 5.86133 16.5742 5.86133 16.1797C5.86133 15.6797 5.87305 14.9277 5.89648 13.9238C5.91992 12.916 5.93164 12.1621 5.93164 11.6621C5.93164 11.4473 6.00781 11.2656 6.16016 11.1172C6.3125 10.9688 6.50195 10.8945 6.72852 10.8945C6.95508 10.8945 7.14453 10.9688 7.29688 11.1172C7.44922 11.2656 7.52539 11.4473 7.52539 11.6621C7.52539 11.959 7.51367 12.4062 7.49023 13.0039C7.4707 13.5977 7.46094 14.043 7.46094 14.3398C7.46094 14.4375 7.44727 14.625 7.41992 14.9023C7.39648 15.1602 7.38672 15.3574 7.39062 15.4941L9.64062 15.0723C10.5195 14.916 11.2773 14.8262 11.9141 14.8027C11.9297 14.541 11.9551 13.8379 11.9902 12.6934C11.998 12.3926 12.0898 12.0469 12.2656 11.6562C12.4844 11.1758 12.7324 10.9355 13.0098 10.9355C13.2168 10.9355 13.4004 11.0039 13.5605 11.1406C13.7324 11.2891 13.8184 11.4746 13.8184 11.6973C13.8184 11.7559 13.8105 11.8145 13.7949 11.873ZM18.8281 20.3574C17.6719 20.3574 16.6875 20.0254 15.875 19.3613C15.0078 18.6504 14.5742 17.7305 14.5742 16.6016C14.5742 15.2734 14.9902 14.0625 15.8223 12.9688C16.7559 11.7383 17.9316 11.123 19.3496 11.123C20.7129 11.123 21.7344 11.4355 22.4141 12.0605C23.0938 12.6855 23.4336 13.625 23.4336 14.8789C23.4336 16.207 23.0508 17.4102 22.2852 18.4883C21.4023 19.7344 20.25 20.3574 18.8281 20.3574ZM19.3496 12.7109C18.4785 12.7109 17.7324 13.1328 17.1113 13.9766C16.5293 14.7656 16.2383 15.6406 16.2383 16.6016C16.2383 17.25 16.4902 17.7773 16.9941 18.1836C17.4785 18.5742 18.0898 18.7695 18.8281 18.7695C19.6875 18.7695 20.4043 18.3477 20.9785 17.5039C21.5059 16.7344 21.7695 15.8594 21.7695 14.8789C21.7695 14.0586 21.5859 13.4883 21.2188 13.168C20.8672 12.8633 20.2441 12.7109 19.3496 12.7109ZM31.4023 12.9746C31.0977 12.9746 30.623 12.9531 29.9785 12.9102C29.3574 12.8672 28.8828 12.8477 28.5547 12.8516C28.5703 13.2969 28.623 14.0898 28.7129 15.2305C28.7949 16.2383 28.8359 17.0352 28.8359 17.6211C28.8359 17.7539 28.8496 17.9512 28.877 18.2129C28.9043 18.4746 28.918 18.6719 28.918 18.8047C28.918 19.0977 28.8555 19.3613 28.7305 19.5957C28.5703 19.8965 28.3418 20.0469 28.0449 20.0469C27.8301 20.0469 27.6406 19.9785 27.4766 19.8418C27.293 19.6895 27.2012 19.498 27.2012 19.2676C27.2012 19.2129 27.2109 19.1309 27.2305 19.0215C27.25 18.9082 27.2598 18.8223 27.2598 18.7637C27.2598 18.584 27.2461 18.3125 27.2188 17.9492C27.1953 17.5859 27.1836 17.3125 27.1836 17.1289C27.1836 16.6055 27.1426 15.8965 27.0605 15.002C26.9668 13.9746 26.9121 13.2656 26.8965 12.875H26.5918C25.7207 12.875 25.0293 12.8125 24.5176 12.6875C24.084 12.582 23.8672 12.3262 23.8672 11.9199C23.8672 11.7207 23.9375 11.541 24.0781 11.3809C24.2422 11.1895 24.457 11.1035 24.7227 11.123C24.8594 11.1309 25.1699 11.1641 25.6543 11.2227C26.041 11.2656 26.3535 11.2871 26.5918 11.2871C26.8301 11.2871 27.1855 11.2832 27.6582 11.2754C28.1348 11.2676 28.4922 11.2637 28.7305 11.2637C29.0273 11.2637 29.4727 11.2852 30.0664 11.3281C30.6602 11.3672 31.1055 11.3867 31.4023 11.3867C31.6367 11.3867 31.832 11.4629 31.9883 11.6152C32.1484 11.7676 32.2285 11.9551 32.2285 12.1777C32.2285 12.4004 32.1484 12.5898 31.9883 12.7461C31.832 12.8984 31.6367 12.9746 31.4023 12.9746Z" fill="white"/>
</svg>
