<svg width="24" height="26" viewBox="0 0 24 26" fill="none" xmlns="http://www.w3.org/2000/svg">
<path d="M22.1073 18.1179L22.9696 13.2222C23.185 11.9994 22.2273 10.881 20.9647 10.881H14.6323C14.0047 10.881 13.5267 10.3279 13.6283 9.71918L14.4383 4.8657C14.5699 4.07722 14.5323 3.2704 14.3279 2.49703C14.1587 1.85637 13.6552 1.34194 12.9931 1.13311L12.8159 1.07722C12.4158 0.951016 11.9791 0.980385 11.6018 1.15887C11.1865 1.35533 10.8828 1.71368 10.7702 2.13987L10.1887 4.34049C10.0037 5.04068 9.73427 5.71654 9.38683 6.35514C8.87918 7.28821 8.09428 8.03496 7.27841 8.72523L5.51995 10.213C5.02415 10.6325 4.76377 11.2607 4.82019 11.9013L5.81283 23.1725C5.90388 24.2063 6.78425 25 7.83998 25H13.5216C17.7765 25 21.4078 22.0893 22.1073 18.1179Z" stroke="#AFAFAF" stroke-width="2"/>
<path d="M1 10.881L2.18751 24.3649C2.21759 24.7064 1.94364 25 1.59486 25C1.26633 25 1 24.7382 1 24.4153V10.881Z" stroke="#AFAFAF" stroke-width="2"/>
</svg>
