<svg width="40" height="40" viewBox="0 0 40 40" fill="none" xmlns="http://www.w3.org/2000/svg">
<path d="M39.3487 39.3487C39.1425 39.5551 38.8976 39.7189 38.6281 39.8307C38.3585 39.9425 38.0696 40 37.7778 40C37.486 40 37.1971 39.9425 36.9276 39.8307C36.658 39.7189 36.4131 39.5551 36.207 39.3487L13.4216 16.5644C13.2151 16.358 13.0514 16.113 12.9396 15.8434C12.8279 15.5737 12.7703 15.2847 12.7703 14.9928C12.7702 14.7009 12.8277 14.4119 12.9393 14.1422C13.051 13.8725 13.2146 13.6274 13.421 13.421C13.6274 13.2146 13.8724 13.0508 14.142 12.9391C14.4117 12.8273 14.7007 12.7698 14.9926 12.7697C15.2845 12.7697 15.5735 12.8271 15.8432 12.9388C16.1129 13.0504 16.3579 13.2141 16.5644 13.4204L39.3487 36.207C39.5551 36.4132 39.7189 36.658 39.8307 36.9276C39.9424 37.1971 40 37.486 40 37.7778C40 38.0696 39.9424 38.3585 39.8307 38.6281C39.7189 38.8976 39.5551 39.1425 39.3487 39.3487Z" fill="#FFAC33"/>
<path d="M31.1107 15.5553C31.1107 24.1448 24.1471 31.1107 15.5553 31.1107C6.96476 31.1107 0 24.1448 0 15.5553C0 6.96363 6.96476 0 15.5553 0C24.1471 0 31.1107 6.96363 31.1107 15.5553Z" fill="#DD2E44"/>
<path d="M19.332 30.63C17.6563 30.7386 15.9747 30.5454 14.3672 30.0597C12.6062 29.5287 10.968 28.6538 9.54736 27.4855C8.12671 26.3173 6.95183 24.8789 6.0907 23.2537C5.40841 21.9829 4.98505 20.5895 4.84512 19.154C4.70519 17.7185 4.85148 16.2695 5.27552 14.891C5.6914 13.5099 6.37726 12.2252 7.29334 11.1112C8.20941 9.99716 9.33749 9.07605 10.6122 8.40124C11.6028 7.86893 12.6893 7.5386 13.8086 7.42941C14.9278 7.32023 16.0577 7.43436 17.1325 7.7652C18.2093 8.08938 19.2111 8.62411 20.0797 9.33837C20.9483 10.0526 21.6664 10.9322 22.1925 11.9261C22.6042 12.693 22.8596 13.5338 22.9441 14.4001C23.0286 15.2663 22.9404 16.1407 22.6846 16.9726C22.434 17.8062 22.0203 18.5817 21.4676 19.2542C20.9149 19.9266 20.234 20.4826 19.4647 20.8897C18.8768 21.2052 18.2322 21.401 17.5683 21.4658C16.9043 21.5306 16.234 21.4631 15.5962 21.2673C14.9574 21.0747 14.3631 20.7572 13.8478 20.3334C13.3324 19.9095 12.9063 19.3876 12.594 18.7979C12.1158 17.8989 12.0137 16.847 12.3103 15.8728C12.6068 14.8987 13.2776 14.0819 14.1756 13.6019C14.5053 13.424 14.8671 13.3137 15.2399 13.2773C15.6127 13.2409 15.989 13.2791 16.3468 13.3898C16.6087 13.4692 16.8536 13.5837 17.0769 13.7288C16.6885 13.5387 16.2605 13.4434 15.8282 13.4507C15.3958 13.458 14.9712 13.5677 14.5894 13.7708C13.8558 14.1635 13.3078 14.8311 13.0655 15.6272C12.8232 16.4233 12.9064 17.283 13.2969 18.0179C13.5212 18.4412 13.8271 18.8159 14.1971 19.1203C14.567 19.4246 14.9936 19.6526 15.4522 19.7911C16.3842 20.0746 17.3706 19.9793 18.23 19.5201C19.2305 18.9848 19.978 18.0745 20.3085 16.9889C20.639 15.9033 20.5255 14.7309 19.993 13.7288C19.6813 13.1399 19.2556 12.6187 18.7409 12.1956C18.2261 11.7725 17.6323 11.4558 16.9942 11.264C16.3573 11.0677 15.6878 10.9999 15.0245 11.0645C14.3611 11.1291 13.7173 11.3249 13.1303 11.6404C11.7131 12.3988 10.6544 13.6881 10.1864 15.2258C9.71845 16.7635 9.8793 18.424 10.6337 19.8433C11.0829 20.6907 11.6957 21.4406 12.4366 22.0498C13.1774 22.6589 14.0317 23.1151 14.95 23.392C16.815 23.9589 18.7901 23.7661 20.5111 22.8489C21.5384 22.3047 22.4475 21.5621 23.1859 20.6641C23.9242 19.7662 24.4772 18.7307 24.8127 17.6177C25.153 16.5065 25.2702 15.339 25.1573 14.1824C25.0444 13.0258 24.7038 11.9029 24.1551 10.8785C23.4917 9.62668 22.5867 8.51879 21.4924 7.61892C20.3981 6.71905 19.1363 6.04508 17.7799 5.63597C16.4257 5.21944 15.0024 5.07591 13.5923 5.21371C12.1823 5.3515 10.8136 5.76787 9.56571 6.43868C8.03314 7.25042 6.67684 8.35813 5.57532 9.69766C4.4738 11.0372 3.64896 12.5819 3.14856 14.2424C2.63925 15.9001 2.46368 17.6424 2.63202 19.3683C2.80035 21.0943 3.30925 22.7698 4.12927 24.2979C5.14953 26.2171 6.54664 27.9108 8.23693 29.2774C10.4881 30.4819 13.0023 31.1109 15.5554 31.1084C16.8292 31.1055 18.0977 30.9448 19.332 30.63ZM17.8298 16.4034C18.0056 16.3093 18.1532 16.17 18.2572 15.9998C18.2166 16.3272 18.0978 16.64 17.911 16.9119C17.7241 17.1839 17.4746 17.4068 17.1835 17.5621C16.8468 17.7413 16.4613 17.7775 16.0985 17.6676C15.9192 17.6136 15.7524 17.5246 15.6078 17.4057C15.4632 17.2868 15.3437 17.1403 15.2561 16.9748C15.1421 16.7602 15.1178 16.5091 15.1886 16.2766C15.2594 16.0442 15.4194 15.8492 15.6337 15.7345C15.7534 15.6706 15.8935 15.6568 16.0234 15.6961C16.1532 15.7355 16.2622 15.8247 16.3264 15.9442C16.3947 16.0733 16.4878 16.1877 16.6004 16.2807C16.7131 16.3737 16.843 16.4436 16.9827 16.4862C17.1223 16.5289 17.2691 16.5436 17.4145 16.5293C17.5599 16.5151 17.701 16.4723 17.8298 16.4034Z" fill="#F4900C"/>
<path d="M27.3862 9.22777C25.6074 5.29132 20.451 0.937636 14.0406 0.231296C13.8003 0.20522 13.561 0.193882 13.3229 0.178009C9.33585 0.754769 5.7292 2.85915 3.26526 6.04641C7.09967 2.86165 10.9477 2.40247 13.7685 2.70859C19.2503 3.31289 23.6255 6.96137 25.113 10.2538C27.3908 15.2969 25.1391 21.2537 20.0972 23.5303C19.1673 23.9534 18.1627 24.1878 17.1415 24.2199C16.1204 24.252 15.103 24.0812 14.1483 23.7174C13.1914 23.359 12.315 22.8143 11.57 22.1148C10.8251 21.4154 10.2262 20.5751 9.80825 19.6426C9.15808 18.1988 9.10699 16.5562 9.66617 15.0748C10.2254 13.5934 11.3492 12.3942 12.7912 11.7402C13.8866 11.2477 15.1326 11.2094 16.2561 11.6338C17.3797 12.0582 18.2892 12.9106 18.7855 14.0044C19.0892 14.6805 19.1626 15.4376 18.9942 16.1594C18.8258 16.8813 18.4251 17.5278 17.8535 17.9998C18.1517 17.6936 18.3864 17.3274 18.5417 16.9159C18.6882 16.5304 18.757 16.1198 18.7439 15.7076C18.7309 15.2955 18.6363 14.89 18.4657 14.5146C18.2718 14.0815 17.9938 13.6913 17.648 13.3665C17.3022 13.0417 16.8953 12.7887 16.451 12.6223C16.0076 12.4531 15.5351 12.3737 15.0608 12.3887C14.5864 12.4037 14.1198 12.5128 13.688 12.7096C13.1838 12.9352 12.7294 13.2586 12.3511 13.6611C11.9727 14.0635 11.678 14.5371 11.484 15.0542C11.2875 15.5705 11.1953 16.1205 11.2126 16.6726C11.2299 17.2247 11.3564 17.7678 11.5849 18.2707C11.8504 18.8634 12.231 19.3975 12.7045 19.8421C13.178 20.2866 13.7351 20.6327 14.3433 20.8603C14.9502 21.0912 15.5968 21.1996 16.2458 21.1792C16.8948 21.1588 17.5333 21.0099 18.1245 20.7412C19.5411 20.0988 20.6453 18.9209 21.1948 17.4657C21.7444 16.0105 21.6947 14.3968 21.0564 12.9783C19.4635 9.45113 15.2934 7.87972 11.7651 9.46927C7.51123 11.3921 5.61443 16.417 7.53504 20.6709C8.08719 21.9022 8.87816 23.0118 9.86214 23.9352C10.8461 24.8587 12.0036 25.5777 13.2674 26.0507C14.4282 26.4918 15.6594 26.7184 16.9011 26.7196C18.3399 26.7196 19.7741 26.4135 21.1244 25.8035C27.418 22.9578 30.2275 15.5236 27.3862 9.22777ZM16.2084 16.0338C16.148 16.1937 16.027 16.3232 15.8717 16.3943C15.6502 16.4939 15.4626 16.6561 15.332 16.8608C15.2015 17.0656 15.1336 17.304 15.1367 17.5469C15.1398 17.7897 15.2138 18.0263 15.3497 18.2276C15.4855 18.4289 15.6772 18.5862 15.9011 18.68C15.6697 18.6602 15.442 18.609 15.2243 18.5281C14.9228 18.4149 14.6468 18.2431 14.4121 18.0226C14.1774 17.8022 13.9887 17.5374 13.857 17.2435C13.7638 17.0391 13.7122 16.8181 13.7051 16.5935C13.6981 16.3688 13.7359 16.1451 13.8161 15.9352C13.9771 15.5089 14.2957 15.1687 14.7141 14.9817C14.8476 14.9204 14.992 14.8864 15.1388 14.8817C15.2856 14.8771 15.4318 14.9018 15.5689 14.9545C15.7068 15.0061 15.833 15.0846 15.9402 15.1854C16.0475 15.2862 16.1336 15.4074 16.1937 15.5417C16.2635 15.6973 16.2688 15.8743 16.2084 16.0338Z" fill="#FFCC4D"/>
</svg>
