<svg width="26" height="24" viewBox="0 0 26 24" fill="none" xmlns="http://www.w3.org/2000/svg">
<path d="M25 24C25.5523 24 26 23.5523 26 23C26 22.4477 25.5523 22 25 22V24ZM25 22H12.0769V24H25V22ZM22.1538 12C22.1538 17.5163 17.6488 22 12.0769 22V24C18.7402 24 24.1538 18.634 24.1538 12H22.1538ZM12.0769 22C6.50501 22 2 17.5163 2 12H0C0 18.634 5.4136 24 12.0769 24V22ZM2 12C2 6.48371 6.50501 2 12.0769 2V0C5.4136 0 0 5.36602 0 12H2ZM12.0769 2C17.6488 2 22.1538 6.48371 22.1538 12H24.1538C24.1538 5.36602 18.7402 0 12.0769 0V2Z" fill="#AFAFAF"/>
<path d="M18.5 12C18.5 12.8284 17.8284 13.5 17 13.5C16.1716 13.5 15.5 12.8284 15.5 12C15.5 11.1716 16.1716 10.5 17 10.5C17.8284 10.5 18.5 11.1716 18.5 12ZM13.5 17C13.5 17.8284 12.8284 18.5 12 18.5C11.1716 18.5 10.5 17.8284 10.5 17C10.5 16.1716 11.1716 15.5 12 15.5C12.8284 15.5 13.5 16.1716 13.5 17ZM13.5 7C13.5 7.82843 12.8284 8.5 12 8.5C11.1716 8.5 10.5 7.82843 10.5 7C10.5 6.17157 11.1716 5.5 12 5.5C12.8284 5.5 13.5 6.17157 13.5 7ZM8.5 12C8.5 12.8284 7.82843 13.5 7 13.5C6.17157 13.5 5.5 12.8284 5.5 12C5.5 11.1716 6.17157 10.5 7 10.5C7.82843 10.5 8.5 11.1716 8.5 12Z" fill="black" stroke="#AFAFAF"/>
</svg>
