<svg width="60" height="61" viewBox="0 0 60 61" fill="none" xmlns="http://www.w3.org/2000/svg">
<path fill-rule="evenodd" clip-rule="evenodd" d="M34.3133 4.18447L0 19.1568L17.2529 60.5796L50.8729 45.5691L34.3133 4.18447Z" fill="black"/>
<path fill-rule="evenodd" clip-rule="evenodd" d="M38.2799 3.99244L30.9628 1.53548L4.15918 13.3598L20.7575 53.3623L52.5289 39.6953L38.2799 4.10772V3.99244Z" fill="white"/>
<path fill-rule="evenodd" clip-rule="evenodd" d="M54.3774 40.348L39.3966 2.84086L30.8857 0L2.31067 12.4768L19.9872 55.0514L54.3774 40.348ZM37.2016 5.22107L50.6419 38.8508L21.5276 51.366L6.04614 14.0892L31.0013 3.1864L37.086 5.22107H37.2016Z" fill="black"/>
<path fill-rule="evenodd" clip-rule="evenodd" d="M28.9988 1.53548L32.4649 8.75285L39.9745 5.41295L39.0117 3.37828L33.5816 5.79686L31.117 0.614162L29.0758 1.61239L28.9988 1.53548Z" fill="black"/>
<path fill-rule="evenodd" clip-rule="evenodd" d="M13.5559 21.7672L17.9461 19.8477L16.3286 16.1239L11.9385 18.0434L13.5559 21.7672Z" fill="black"/>
<path fill-rule="evenodd" clip-rule="evenodd" d="M18.0231 32.2094L22.4133 30.2898L20.7958 26.5276L16.4056 28.4472L18.0231 32.2094Z" fill="black"/>
<path fill-rule="evenodd" clip-rule="evenodd" d="M22.6831 43.304L27.0732 41.3845L25.4173 37.6607L21.0271 39.6953L22.6831 43.304Z" fill="black"/>
<path fill-rule="evenodd" clip-rule="evenodd" d="M32.1567 15.74C34.1207 15.164 36.2002 15.164 38.1258 15.74C40.0898 16.3157 41.8229 17.4291 43.1322 19.0031C44.4416 20.5387 45.2888 22.4581 45.5585 24.4544C45.8281 26.4507 45.4814 28.5238 44.5957 30.3282C43.7099 32.1708 42.3234 33.6681 40.552 34.7431C38.819 35.7795 36.7779 36.3171 34.7754 36.2402C32.7343 36.1634 30.7703 35.5109 29.1143 34.3208C27.4583 33.1307 26.1874 31.5183 25.4172 29.6371C24.4929 26.9114 24.6471 23.917 25.9179 21.3449C27.1887 18.6959 29.4224 16.6997 32.1567 15.74Z" fill="black"/>
<path fill-rule="evenodd" clip-rule="evenodd" d="M45.4429 22.0359L44.2491 26.9114L56.7651 30.021L57.9976 25.1455L45.4429 22.0359Z" fill="#69A5FF"/>
<path fill-rule="evenodd" clip-rule="evenodd" d="M53.5303 22.9957L51.6047 30.3666L53.2992 30.8272L55.1863 23.418L53.5303 22.9957Z" fill="black"/>
<path fill-rule="evenodd" clip-rule="evenodd" d="M60 23.8786L44.0951 19.963L42.054 28.1784L57.9589 32.0942L60 23.8786ZM45.3659 22.036L44.1721 26.9115L56.6881 30.0212L57.9206 25.1456L45.3659 22.036Z" fill="black"/>
<path fill-rule="evenodd" clip-rule="evenodd" d="M32.7343 13.3596C34.6214 12.6687 36.6625 12.515 38.588 12.9757C40.5521 13.4365 42.3236 14.4346 43.6715 15.8935C45.0578 17.3522 45.9437 19.1566 46.2903 21.1529C46.6369 23.1107 46.3672 25.1455 45.5585 26.9881C44.7497 28.8309 43.4018 30.3664 41.7075 31.4414C40.013 32.5164 38.0489 33.0538 36.0463 33.0154C34.0437 32.977 32.0797 32.3243 30.4622 31.2111C28.8062 30.0594 27.5354 28.4854 26.8036 26.6042C26.3031 25.3374 26.072 23.9938 26.1104 22.65C26.149 21.3064 26.4185 19.9628 26.9963 18.7343C27.5739 17.5058 28.3442 16.3925 29.307 15.4712C30.3082 14.5497 31.4635 13.8203 32.7343 13.3596Z" fill="#E2EDFF"/>
<path fill-rule="evenodd" clip-rule="evenodd" d="M32.2336 11.9778C30.1539 12.8607 28.344 14.358 27.1117 16.239C25.8408 18.1202 25.1862 20.3467 25.1862 22.6118C25.1862 24.8769 25.8794 27.1034 27.1502 28.9846C28.4211 30.8658 30.231 32.3629 32.3107 33.2074C34.4287 34.0905 36.7393 34.3208 38.973 33.8985C41.2067 33.4762 43.2862 32.4012 44.9037 30.7888C46.5211 29.1765 47.638 27.1418 48.1 24.9536C48.5622 22.7269 48.3697 20.4236 47.5224 18.312C46.9448 16.8917 46.0976 15.6248 44.9807 14.5115C43.9024 13.4365 42.593 12.5536 41.2067 11.9778C39.7818 11.4018 38.2799 11.0948 36.7393 11.0948C35.1604 11.0948 33.62 11.4018 32.2336 11.9778ZM36.5469 14.0124H36.7779C38.5109 14.0124 40.244 14.5115 41.6688 15.4712C43.1322 16.431 44.249 17.813 44.9037 19.4254C45.5969 21.0378 45.8279 22.8422 45.4813 24.6081C45.1732 26.3356 44.326 27.948 43.0552 29.2148C41.8229 30.4818 40.2054 31.3648 38.4724 31.7103C36.7393 32.0557 34.9294 31.9022 33.2734 31.2111C31.6174 30.5202 30.231 29.3685 29.2297 27.9096C28.2284 26.4125 27.7278 24.6848 27.7278 22.9189C27.7278 21.1529 28.2669 19.4254 29.2682 17.9281C30.2695 16.4694 31.6945 15.3177 33.3505 14.665H33.5815C34.5443 14.3196 35.5841 14.1276 36.6239 14.0892L36.5469 14.0124Z" fill="black"/>
<path fill-rule="evenodd" clip-rule="evenodd" d="M34.0052 16.5844C35.199 16.1237 36.5469 16.0086 37.8177 16.2774C39.0887 16.546 40.244 17.1987 41.1297 18.12C42.0155 19.0415 42.6317 20.2316 42.8627 21.4984C43.0937 22.7653 42.9398 24.0705 42.439 25.2606C41.9385 26.4507 41.0528 27.4488 39.9744 28.1399C38.8961 28.8309 37.6252 29.2148 36.3158 29.1765C35.0065 29.1381 33.7356 28.7542 32.6958 28.0247C31.6174 27.2953 30.8088 26.2587 30.3081 25.0686C29.6534 23.4562 29.6919 21.6519 30.3851 20.0396C31.0783 18.5039 32.3877 17.2371 34.0052 16.5844Z" fill="#3670FF"/>
<path fill-rule="evenodd" clip-rule="evenodd" d="M33.774 16.0471C32.4647 16.5845 31.3479 17.4676 30.5391 18.6192C29.7305 19.7709 29.3068 21.1531 29.2683 22.535C29.2298 23.9555 29.6534 25.2992 30.3852 26.4893C31.1553 27.6794 32.2336 28.6007 33.543 29.1766C34.8524 29.7524 36.2774 29.9059 37.6636 29.6757C39.0501 29.4452 40.3209 28.7927 41.3607 27.7945C42.362 26.8348 43.0938 25.5679 43.4018 24.2242C43.7099 22.8422 43.5943 21.4217 43.0938 20.1165C42.7472 19.2335 42.2464 18.4273 41.5917 17.7746C40.9371 17.0837 40.1669 16.5462 39.2811 16.1622C38.4339 15.7783 37.4711 15.5865 36.5469 15.5481C35.6227 15.5481 34.6599 15.7016 33.774 16.0471ZM34.2362 17.1221C35.3531 16.6998 36.5469 16.6229 37.7022 16.8533C38.8576 17.1221 39.8974 17.6979 40.706 18.5424C41.5148 19.387 42.0539 20.462 42.285 21.6137C42.4776 22.7654 42.362 23.9555 41.8998 25.0304C41.4378 26.1053 40.6675 27.0267 39.6662 27.6794C38.6649 28.3319 37.5097 28.6391 36.3543 28.6391C35.1605 28.6391 34.0437 28.2551 33.0424 27.6026C32.0797 26.9499 31.3094 25.9902 30.8857 24.9152C30.3081 23.418 30.3466 21.8056 31.0013 20.3469C31.579 18.888 32.7344 17.7363 34.2362 17.1221Z" fill="black"/>
</svg>
