<svg width="15" height="14" viewBox="0 0 15 14" fill="none" xmlns="http://www.w3.org/2000/svg">
<path d="M0.0701657 5.0427C0.997746 4.64399 1.94876 4.30216 2.91791 4.0191C3.48712 3.87546 4.06471 3.76729 4.64733 3.69522C4.64733 3.69522 5.34399 2.13996 5.74426 1.35469C6.14453 0.569425 6.40425 0.0469314 6.84425 0.00109866C7.28424 -0.0447341 8.16117 1.35469 8.58895 2.09107C9.01672 2.82745 9.38338 3.43856 9.38338 3.43856C9.38338 3.43856 12.3533 3.71355 13.4228 3.76244C14.4922 3.81133 14.8833 3.83883 14.9964 4.12605C15.1094 4.41326 12.552 6.26491 12.0386 6.66518C11.7434 6.89593 11.4684 7.15149 11.2167 7.42906C11.2167 7.42906 11.7606 9.38459 12.115 10.8085C12.4695 12.2323 12.6192 12.767 12.4572 13.042C12.2953 13.317 11.7972 13.1673 11.3695 12.929C10.9417 12.6907 9.0595 11.4685 8.35062 11.0651C7.64174 10.6618 7.37896 10.6954 7.33007 10.7046C7.28119 10.7137 4.63816 12.1162 3.7979 12.5837C2.95763 13.0512 2.49625 13.0634 2.3068 13.0115C2.11736 12.9595 2.21208 12.4676 2.2793 12.0948C2.34653 11.7221 3.40679 7.93933 3.40679 7.88433C2.75262 7.24684 2.03607 6.67667 1.26793 6.18241C0.473494 5.67825 0.186275 5.55603 0.119054 5.50103C0.0518327 5.44603 -0.0826101 5.10687 0.0701657 5.0427Z" fill="#63635C"/>
<path d="M1.0448 5.20448C1.10896 5.09754 3.01255 4.47727 3.86198 4.28783C4.71142 4.09838 4.86419 4.11672 4.91002 4.07699C4.95586 4.03727 5.77168 2.36896 6.19029 1.59591C6.60889 0.822869 6.76472 0.630371 6.83194 0.630371C7.40523 1.38568 7.93471 2.17326 8.41776 2.98923C8.80581 3.67672 8.8822 3.84478 8.94025 3.84478C8.99831 3.84478 11.7972 4.09227 12.7596 4.15033C13.7221 4.20838 14.1744 4.2756 14.1346 4.34282C14.0949 4.41005 12.4633 5.6017 11.6902 6.27086C10.9172 6.94001 10.5566 7.1814 10.575 7.29445C10.5933 7.40751 11.0424 9.24387 11.0119 9.22248C10.669 9.03336 10.3126 8.86995 9.94552 8.7336C9.90885 8.77027 9.74691 8.99027 9.8233 9.06665C9.89968 9.14304 11.0822 9.67776 11.0822 9.73581C11.0822 9.79387 11.1799 10.2522 11.1799 10.2522C11.1799 10.2522 9.5758 9.33554 9.50858 9.33554C9.44136 9.33554 9.23969 9.50665 9.28858 9.57387C9.33747 9.64109 11.2166 10.6616 11.2655 10.7289C11.3455 10.8753 11.4032 11.0329 11.4366 11.1964C11.4091 11.1964 9.07775 9.82137 8.9922 9.8397C8.90664 9.85803 8.76303 10.1269 8.79053 10.1453C8.81803 10.1636 11.513 11.7311 11.5619 11.8075C11.6108 11.8838 11.8277 12.4186 11.7697 12.4186C11.7116 12.4186 9.45052 11.0925 8.59192 10.6158C7.73332 10.1391 7.53166 10.0689 7.36972 10.0811C6.17141 10.6047 5.00156 11.1911 3.86504 11.838C3.20505 12.2383 2.94838 12.3147 2.92699 12.2658C2.90561 12.2169 3.67254 9.19193 3.84365 8.44638C4.01476 7.70084 4.08504 7.56945 3.89254 7.33112C3.39192 6.83266 2.83035 6.39943 2.22117 6.04169C1.42674 5.5467 1.01424 5.25031 1.0448 5.20448Z" fill="#FDFF86"/>
<path d="M5.99179 3.23382C5.89096 3.13299 6.6579 1.80078 6.69762 1.80078C6.73734 1.80078 6.94512 1.84967 6.96345 1.92606C6.79806 2.42214 6.59372 2.90438 6.35235 3.36826C6.2244 3.34793 6.10181 3.30222 5.99179 3.23382Z" fill="#63635C"/>
</svg>
