<svg width="26" height="26" viewBox="0 0 26 26" fill="none" xmlns="http://www.w3.org/2000/svg">
<path d="M16.3693 4.29172L16.8916 5.14449L16.3693 4.29172ZM18.8156 2.79347L19.3379 3.64624L18.8156 2.79347ZM18.8156 19.9744L18.2933 20.8272L18.8156 19.9744ZM16.3693 18.4762L15.847 19.329H15.847L16.3693 18.4762ZM15.2522 17.8534L15.6268 16.9262L15.6268 16.9262L15.2522 17.8534ZM14.44 17.6251L14.6035 16.6386L14.6035 16.6386L14.44 17.6251ZM14.44 5.14283L14.2765 4.15629H14.2765L14.44 5.14283ZM15.2522 4.91456L15.6268 5.84176L15.6268 5.84176L15.2522 4.91456ZM1.09708 13.5877L2.0771 13.3888L1.09708 13.5877ZM5.06691 17.4779L4.87559 18.4595H4.87559L5.06691 17.4779ZM24.5018 20.7716L23.7048 20.1676L23.7048 20.1676L24.5018 20.7716ZM22.6761 21.7632L22.7547 22.7601H22.7547L22.6761 21.7632ZM24.5018 1.99632L23.7048 2.60034V2.60034L24.5018 1.99632ZM22.6761 1.00473L22.7547 0.0078181H22.7547L22.6761 1.00473ZM1.09708 9.18019L2.0771 9.37911L1.09708 9.18019ZM5.06691 5.28999L5.25823 6.27151H5.25823L5.06691 5.28999ZM6.05263 17.5731V16.5731H5.05263V17.5731H6.05263ZM11.1053 17.5731H12.1053V16.5731H11.1053V17.5731ZM24 6.15242V16.6155H26V6.15242H24ZM7.31579 6.19485H13.1558V4.19485H7.31579V6.19485ZM16.8916 5.14449L19.3379 3.64624L18.2933 1.9407L15.847 3.43895L16.8916 5.14449ZM19.3379 19.1217L16.8916 17.6234L15.847 19.329L18.2933 20.8272L19.3379 19.1217ZM13.1558 16.5731H7.31579V18.5731H13.1558V16.5731ZM13.8947 5.5V17.5H15.8947V5.5H13.8947ZM16.8916 17.6234C16.3703 17.3042 16.0156 17.0832 15.6268 16.9262L14.8776 18.7806C15.0773 18.8612 15.2712 18.9763 15.847 19.329L16.8916 17.6234ZM13.1558 18.5731C13.8347 18.5731 14.0625 18.5762 14.2765 18.6116L14.6035 16.6386C14.1899 16.57 13.7708 16.5731 13.1558 16.5731V18.5731ZM15.6268 16.9262C15.2975 16.7931 14.9543 16.6967 14.6035 16.6386L14.2765 18.6116C14.4829 18.6458 14.6846 18.7026 14.8777 18.7806L15.6268 16.9262ZM13.1558 6.19485C13.7708 6.19485 14.1899 6.19794 14.6035 6.12936L14.2765 4.15629C14.0625 4.19175 13.8347 4.19485 13.1558 4.19485V6.19485ZM15.847 3.43895C15.2712 3.79165 15.0773 3.9067 14.8776 3.98736L15.6268 5.84176C16.0156 5.68468 16.3703 5.46375 16.8916 5.14449L15.847 3.43895ZM14.6035 6.12936C14.9543 6.07122 15.2975 5.9748 15.6268 5.84176L14.8776 3.98736C14.6846 4.06536 14.4829 4.12207 14.2765 4.15629L14.6035 6.12936ZM0 11.384C0 12.4854 -0.005036 13.1851 0.117071 13.7867L2.0771 13.3888C2.00504 13.0338 2 12.5831 2 11.384H0ZM7.31579 16.5731C6.09491 16.5731 5.62765 16.5684 5.25823 16.4964L4.87559 18.4595C5.48234 18.5777 6.18894 18.5731 7.31579 18.5731V16.5731ZM0.117071 13.7867C0.598195 16.1569 2.48418 17.9933 4.87559 18.4595L5.25823 16.4964C3.64098 16.1812 2.39335 14.9468 2.0771 13.3888L0.117071 13.7867ZM24 16.6155C24 17.802 23.999 18.6209 23.9421 19.2286C23.8846 19.8429 23.781 20.0671 23.7048 20.1676L25.2988 21.3756C25.7208 20.8188 25.8663 20.1312 25.9334 19.4149C26.001 18.692 26 17.7616 26 16.6155H24ZM18.2933 20.8272C19.2858 21.4351 20.0883 21.9277 20.7474 22.2535C21.4003 22.5762 22.0619 22.8147 22.7547 22.7601L22.5976 20.7663C22.4575 20.7773 22.1981 20.7396 21.6335 20.4605C21.0752 20.1846 20.3638 19.75 19.3379 19.1217L18.2933 20.8272ZM23.7048 20.1676C23.4456 20.5097 23.0432 20.7312 22.5976 20.7663L22.7547 22.7601C23.761 22.6808 24.6896 22.1794 25.2988 21.3756L23.7048 20.1676ZM26 6.15242C26 5.00636 26.001 4.07595 25.9334 3.35297C25.8663 2.63673 25.7208 1.94913 25.2988 1.39229L23.7048 2.60034C23.781 2.70081 23.8846 2.925 23.9421 3.53936C23.999 4.14697 24 4.96595 24 6.15242H26ZM19.3379 3.64624C20.3638 3.01791 21.0752 2.58336 21.6335 2.30739C22.1981 2.02836 22.4575 1.9906 22.5976 2.00164L22.7547 0.0078181C22.0619 -0.0467577 21.4003 0.191743 20.7474 0.514426C20.0883 0.840172 19.2859 1.3328 18.2933 1.9407L19.3379 3.64624ZM25.2988 1.39229C24.6896 0.588485 23.761 0.0870968 22.7547 0.0078181L22.5976 2.00164C23.0432 2.03675 23.4456 2.25822 23.7048 2.60034L25.2988 1.39229ZM2 11.384C2 10.1848 2.00504 9.73413 2.0771 9.37911L0.117071 8.98126C-0.005036 9.58282 0 10.2825 0 11.384H2ZM7.31579 4.19485C6.18894 4.19485 5.48234 4.19019 4.87559 4.30846L5.25823 6.27151C5.62765 6.19951 6.09491 6.19485 7.31579 6.19485V4.19485ZM2.0771 9.37911C2.39335 7.82112 3.64098 6.58675 5.25823 6.27151L4.87559 4.30846C2.48418 4.7746 0.598195 6.611 0.117071 8.98126L2.0771 9.37911ZM6.05263 18.5731H11.1053V16.5731H6.05263V18.5731ZM10.1053 17.5731V23.7622H12.1053V17.5731H10.1053ZM9.8421 24H9.21053V26H9.8421V24ZM7.05263 21.9054V17.5731H5.05263V21.9054H7.05263ZM9.21053 24C7.99956 24 7.05263 23.0432 7.05263 21.9054H5.05263C5.05263 24.1858 6.93338 26 9.21053 26V24ZM10.1053 23.7622C10.1053 23.8745 10.0066 24 9.8421 24V26C11.0728 26 12.1053 25.0171 12.1053 23.7622H10.1053Z" fill="#AFAFAF"/>
</svg>
