<svg xmlns="http://www.w3.org/2000/svg" width="22.163" height="15.453" viewBox="0 0 22.163 15.453"><path data-name="Path 67" d="M1.27.06h19.623A1.212 1.212 0 0 1 22.1 1.27v6.459H.06V1.27A1.212 1.212 0 0 1 1.27.06Z" fill="#fff"/><path data-name="Path 68" d="M.06 7.729h22.047v6.458a1.212 1.212 0 0 1-1.21 1.21H1.27a1.215 1.215 0 0 1-1.21-1.21V7.729Z" fill="#d52b1e"/><path data-name="Path 69" d="M.06 5.172h22.047v5.112H.06Z" fill="#0039a6"/><path data-name="Path 70" d="M1.27.06h19.623A1.212 1.212 0 0 1 22.1 1.27v12.913a1.212 1.212 0 0 1-1.21 1.21H1.27a1.215 1.215 0 0 1-1.21-1.21V1.27A1.212 1.212 0 0 1 1.27.06Z" fill="none" stroke="#ccc" stroke-miterlimit="2.613" stroke-width=".12"/></svg>