<svg xmlns="http://www.w3.org/2000/svg" viewBox="0 0 241.1 14.6" style="enable-background:new 0 0 241.1 14.6" xml:space="preserve"><path d="M0 .6h2.6V6h5.7V.6H11v13.3H8.4V8.6H2.6v5.3H0V.6zm21.7 0h2.5l5.6 13.3H27l-1.5-3.5h-5.1L19 13.9h-2.9L21.7.6zm2.8 7.3L23 4.3l-1.5 3.6h3zM35 .6h2.5L44 9.5V.6h2.6v13.3h-2.5l-6.5-8.8v8.8H35V.6zm19.2 12.2c-.9-.7-1.4-1.8-1.6-3.1V9h2.7v.6c0 .6.3 1.1.9 1.4.6.3 1.3.5 2.3.5 2.7 0 2.7-1.1 2.7-1.5 0-.3-.1-.5-.3-.6-.4-.3-.8-.5-1.4-.6-.6-.2-1.2-.3-1.9-.5l-2.1-.6c-.7-.3-1.3-.6-1.7-1.1-.5-.7-.8-1.4-.8-2.2 0-1.2.5-2.1 1.4-2.9.9-.7 2.1-1.1 3.8-1.1s3 .4 3.9 1.2c.9.7 1.4 1.7 1.4 2.8v.7H61l-.1-.6c-.1-.5-.3-1.1-1.5-1.4-.4-.1-.8-.2-1.4-.2s-1 .1-1.4.2c-.3.1-.6.2-.8.4-.1.1-.2.3-.3.4-.1.2-.1.4-.1.6 0 0 0 .1.2.3.2.2.4.3.7.5.4.1.8.3 1.2.4.5.1 1 .2 1.5.4.5.1 1 .3 1.6.5.5.2 1 .4 1.5.7 1 .6 1.6 1.6 1.6 2.8 0 1.3-.5 2.4-1.5 3.1-1 .7-2.3 1-3.9 1-1.6-.2-3.1-.6-4.1-1.4zm14.9-1.5h7.5V8.6h-5.4V6h5.4V3.2h-7.5V.6h10.1v13.3H69.1v-2.6zM85.7.6h2.6v10.7h6.6v2.6h-9.2V.6zm30.5 12.1c-1.2 1.2-2.6 1.7-4.1 1.7-2.7 0-4.6-1.8-4.6-4.2 0-1.2.5-2.8 2.7-3.9-.6-.8-.9-1.5-.9-2.6 0-2.1 1.7-3.7 4-3.7 2.1 0 3.7 1.5 3.7 3.5 0 1.5-.8 2.7-2.5 3.5l1.7 1.7c.4-.6.7-1.3 1-2.1l.3-.6 2.3 1.1-.3.6c-.6 1.2-1.1 2.1-1.6 2.9l2.3 2.4-2.1 1.6-1.9-1.9zm-1.7-1.8-2.7-2.8c-1.1.5-1.6 1.2-1.6 2 0 1 .8 1.8 2 1.8.8 0 1.5-.3 2.3-1zm-.2-7.3c0-.7-.5-1.2-1.2-1.2-.8 0-1.3.5-1.3 1.2 0 .5.1.8.8 1.6 1.5-.5 1.7-1.1 1.7-1.6zm21 8.4c-1.2-1.3-1.9-2.9-1.9-4.8s.6-3.5 1.9-4.8c1.3-1.3 2.9-2 4.9-2s3.6.7 4.9 2c.5.5.9 1.1 1.2 1.8l.4.9h-2.8l-.2-.3c-.1-.2-.3-.4-.5-.6-.8-.8-1.7-1.2-3-1.2s-2.3.4-3 1.2c-.8.8-1.2 1.8-1.2 3s.4 2.2 1.1 3c.8.8 1.7 1.2 3 1.2s2.2-.4 3-1.2c.4-.5.7-.9.9-1.5h-4.4V6.2h7.2v1.1c0 .3 0 .6-.1.9-.1 1.5-.7 2.8-1.7 3.8-1.3 1.3-2.9 2-4.9 2s-3.6-.6-4.8-2zM152.6.6h6.4c1.4 0 2.5.4 3.4 1.2.9.8 1.3 1.9 1.3 3.2 0 1.7-.8 3-2.2 3.7-.1.1-.2.1-.3.1l3.1 5.1H161l-2.6-4.6h-3.2v4.6h-2.6V.6zm6.1 6.2c1.1 0 1.7-.3 2.1-.9.2-.2.2-.5.2-.9 0-.6-.2-1-.6-1.3-.4-.3-1-.5-1.7-.5h-3.6v3.6h3.6zm10.5 4.5h7.5V8.6h-5.4V6h5.4V3.2h-7.5V.6h10.1v13.3h-10.1v-2.6zm19.5-8.1h-4.2V.6h11v2.6h-4.2v10.7h-2.6V3.2zm15.3 0h-4.2V.6h11v2.6h-4.2v10.7H204V3.2zm11.3 8.1h7.5V8.6h-5.4V6h5.4V3.2h-7.5V.6h10.1v13.3h-10.1v-2.6zM231.9.6h2.6v10.7h6.6v2.6h-9.2V.6z" style="fill:#333"/></svg>