<svg width="282" height="90" viewBox="0 0 282 90" fill="none" xmlns="http://www.w3.org/2000/svg">
<path d="M27.8059 32.5928C25.6569 41.9051 15.3485 43.2092 10.2559 41.9051C5.16332 40.601 17.7276 66.8598 22.217 79.3141C26.7063 91.7684 44.8085 94.6648 49.153 78.7349C53.4975 62.8049 57.2628 50.2058 57.2628 50.2058C60.6901 59.9086 67.1725 79.6239 67.5448 80.4727C71.793 90.1565 89.087 91.83 91.8741 80.4727C91.8741 80.4727 112.583 25.1525 114.031 12.6981C115.479 0.243745 99.4046 -4.53512 95.0601 5.1676C90.7156 14.8703 79.1302 51.3644 79.1302 51.3644C79.1302 51.3644 74.7897 33.2455 70.586 22.1112C65.2277 7.91913 49.0082 13.567 44.8085 23.2698C40.2939 33.6999 34.6712 51.3644 34.6712 51.3644C34.6712 51.3644 29.9549 23.2806 27.8059 32.5928Z" fill="black"/>
<path d="M0.157529 24.1122C-0.990796 31.975 4.26236 39.2459 11.891 40.3526C19.5196 41.4593 26.6345 35.9826 27.7829 28.1199C28.0954 25.32 27.7364 22.6241 26.8356 20.18L26.865 20.2708C26.3371 19.2964 26.104 18.1222 26.2809 16.9111C26.6359 14.4804 29.4787 12.4093 32.0849 12.7874L32.4178 12.8357C33.3337 12.943 34.1763 12.2809 34.314 11.3378C34.4518 10.3947 33.8335 9.52068 32.9276 9.36372L32.588 9.31446C28.4442 8.71331 24.566 10.4768 23.0436 15.0217C21.3188 13.4325 19.0802 12.3092 16.5508 11.9423C16.3729 11.9165 16.1971 11.8952 16.0195 11.8765L16.0453 11.8789C8.4188 10.7767 1.30835 16.2512 0.159079 24.111L0.157529 24.1122ZM12.2857 25.8717C12.4257 24.9133 13.2937 24.2464 14.2235 24.3813C15.1534 24.5162 15.7946 25.4021 15.6545 26.3618C15.5143 27.3216 14.6476 27.9887 13.7164 27.8536L13.7124 27.853C12.7843 27.7155 12.1471 26.8302 12.2869 25.8733L12.2871 25.8719L12.2857 25.8717ZM3.52647 24.601C3.7807 22.8791 5.33867 21.6811 7.00967 21.9235C8.68066 22.1659 9.83361 23.76 9.58187 25.4837C9.33014 27.2074 7.77041 28.408 6.09807 28.1653C5.26257 28.0441 4.55615 27.5856 4.09024 26.9408C3.62434 26.2959 3.4001 25.4663 3.52586 24.6051L3.52647 24.601ZM18.3498 26.7514C18.604 25.0295 20.162 23.8315 21.833 24.0739C23.504 24.3163 24.657 25.9105 24.4052 27.6341C24.1535 29.3578 22.5938 30.5584 20.9214 30.3158C20.0859 30.1946 19.3795 29.7361 18.9136 29.0912C18.4477 28.4464 18.2234 27.6167 18.3492 26.7556L18.3498 26.7514ZM9.82248 33.3153C10.0746 31.5889 11.6372 30.3873 13.3109 30.6301C14.9846 30.8729 16.1385 32.47 15.8866 34.1951C15.6344 35.9215 14.0718 37.1231 12.3981 36.8803L12.3927 36.8795C10.7208 36.6341 9.57074 35.039 9.82248 33.3153ZM12.0538 18.037C12.308 16.3151 13.866 15.1171 15.537 15.3595C17.208 15.602 18.3609 17.1961 18.1092 18.9198C17.8575 20.6434 16.2977 21.844 14.6254 21.6014C13.7886 21.48 13.081 21.0199 12.6166 20.3739C12.1521 19.7292 11.9276 18.901 12.0534 18.0398L12.054 18.0356L12.0538 18.037Z" fill="black"/>
<path d="M149.254 60.386L138.483 81.346C136.819 84.5898 135.405 86.8493 134.241 88.1247C133.076 89.3723 131.829 89.9961 130.498 89.9961C129.195 89.9961 128.141 89.5248 127.337 88.5821C125.646 86.6969 124.163 84.562 122.888 82.1777L111.077 59.7622C110.439 58.5423 109.815 57.669 109.205 57.1422C108.623 56.5878 107.805 56.1719 106.752 55.8946C104.645 55.2847 103.591 54.148 103.591 52.4845C103.591 50.7933 104.894 49.5595 107.5 48.7832C110.106 48.0069 114.224 47.6188 119.852 47.6188C124.565 47.6188 128.03 47.9653 130.248 48.6585C132.494 49.3239 133.617 50.3635 133.617 51.7775C133.617 52.7756 133.09 53.7321 132.037 54.647C131.371 55.257 130.942 55.7144 130.747 56.0194C130.553 56.3244 130.456 56.7125 130.456 57.1838C130.456 58.1265 131.066 59.6929 132.286 61.8832C133.506 64.018 134.643 65.0854 135.696 65.0854C136.389 65.0854 136.958 64.822 137.401 64.2952C137.845 63.7685 138.649 62.41 139.813 60.2197C140.673 58.6117 141.103 57.3918 141.103 56.56C141.103 55.8946 140.659 55.1045 139.772 54.1896C138.829 53.1915 138.358 52.2627 138.358 51.4032C138.358 50.0724 139.231 49.1159 140.978 48.5337C142.752 47.9515 145.65 47.6604 149.67 47.6604C155.325 47.6604 158.153 48.8803 158.153 51.32C158.153 52.734 157.141 53.7598 155.118 54.3975C153.537 54.8965 152.456 55.4372 151.874 56.0194C151.319 56.6016 150.446 58.0572 149.254 60.386Z" fill="black"/>
<path d="M182.357 50.2388V74.4009C182.357 76.3139 182.523 77.714 182.856 78.6012C183.217 79.4884 183.924 80.3063 184.977 81.0549C185.837 81.6648 186.405 82.1916 186.682 82.6352C186.987 83.051 187.14 83.5917 187.14 84.2571C187.14 87.8336 182.607 89.6218 173.541 89.6218C168.661 89.6218 164.793 89.2337 161.938 88.4574C160.967 88.1801 160.177 87.6949 159.567 87.0018C158.985 86.3087 158.694 85.5186 158.694 84.6314C158.694 83.8828 158.847 83.3006 159.152 82.8847C159.456 82.4688 160.233 81.8034 161.48 80.8885C162.34 80.2508 162.95 79.2112 163.31 77.7695C163.671 76.3278 163.851 74.1791 163.851 71.3235C163.851 70.4086 163.782 68.7035 163.643 66.2082C163.532 63.6853 163.449 62.2159 163.393 61.8C163.227 60.6633 162.451 59.79 161.065 59.18C159.346 58.4314 158.486 57.3225 158.486 55.853C158.486 54.1064 159.609 52.8033 161.855 51.9439C164.96 50.7517 168.287 49.7397 171.836 48.908C175.384 48.0762 178.129 47.6604 180.07 47.6604C181.595 47.6604 182.357 48.5198 182.357 50.2388ZM174.123 32.0236C176.535 32.0236 178.448 32.4811 179.862 33.396C181.276 34.2832 181.983 35.4892 181.983 37.0141C181.983 39.1489 180.915 40.8401 178.781 42.0877C175.398 44.0562 171.309 45.0404 166.512 45.0404C164.489 45.0404 162.88 44.6522 161.688 43.8759C160.08 42.8779 159.276 41.4916 159.276 39.7172C159.276 37.3329 160.981 35.4615 164.391 34.103C167.857 32.7167 171.101 32.0236 174.123 32.0236Z" fill="black"/>
<path d="M238.209 35.3506V73.3197C238.209 75.4822 238.292 76.8684 238.458 77.4784C238.652 78.0883 239.165 78.6844 239.997 79.2666C240.995 79.9597 241.66 80.5697 241.993 81.0965C242.354 81.6232 242.534 82.2609 242.534 83.0095C242.534 85.2274 240.302 86.9187 235.838 88.0831C231.818 89.1089 227.798 89.6218 223.778 89.6218C222.891 89.6218 222.309 89.4832 222.031 89.2059C221.782 88.9564 221.615 88.3326 221.532 87.3345C221.394 85.9206 220.895 85.2136 220.035 85.2136C219.564 85.2136 218.829 85.6294 217.831 86.4612C215.003 88.7623 211.856 89.9129 208.391 89.9129C204.093 89.9129 200.226 88.3188 196.788 85.1304C194.764 83.2174 193.128 81.0133 191.881 78.518C190.217 75.2742 189.385 71.9889 189.385 68.6619C189.385 64.7527 190.467 60.9821 192.629 57.3502C194.625 53.9955 197.342 51.4171 200.78 49.615C203.664 48.1178 206.505 47.3693 209.306 47.3693C212.522 47.3693 215.405 48.0901 217.956 49.5318C218.372 49.7536 218.704 49.8645 218.954 49.8645C219.841 49.8645 220.285 48.6723 220.285 46.288C220.285 45.2622 220.035 44.4859 219.536 43.9591C219.065 43.4046 218.205 42.9333 216.958 42.5452C215.211 41.9907 214.338 41.0203 214.338 39.6341C214.338 37.6101 216.348 36.0298 220.368 34.8931C227.465 32.9247 232.22 31.9404 234.632 31.9404C237.017 31.9404 238.209 33.0771 238.209 35.3506ZM215.627 56.2689C213.825 56.2689 212.397 57.2254 211.343 59.1384C209.929 61.6891 209.222 65.0438 209.222 69.2025C209.222 72.9731 209.902 75.8149 211.26 77.7279C212.231 79.1141 213.548 79.8072 215.211 79.8072C217.013 79.8072 218.316 78.7676 219.12 76.6882C219.952 74.5811 220.368 71.1987 220.368 66.5409C220.368 62.2713 219.883 59.4295 218.912 58.0156C218.164 56.9066 217.069 56.3244 215.627 56.2689Z" fill="black"/>
<path d="M261.622 47.3693C263.008 47.3693 265.268 47.6742 268.401 48.2842C269.039 48.3951 269.565 48.4505 269.981 48.4505C270.453 48.4505 271.368 48.201 272.726 47.702C273.364 47.4524 273.904 47.3277 274.348 47.3277C275.623 47.3277 276.912 48.1456 278.216 49.7813C279.269 51.0844 280.129 52.5122 280.794 54.0648C281.459 55.6174 281.792 56.962 281.792 58.0988C281.792 59.2077 281.404 60.1365 280.628 60.8851C279.851 61.6059 278.881 61.9664 277.716 61.9664C276.746 61.9664 275.873 61.7307 275.096 61.2594C274.348 60.7881 273.128 59.7484 271.437 58.1403C269.662 56.4214 268.193 55.5619 267.029 55.5619C266.252 55.5619 265.573 55.853 264.991 56.4353C264.436 56.9898 264.159 57.6552 264.159 58.4314C264.159 59.79 265.462 61.0653 268.068 62.2575C272.754 64.3646 276.344 66.6657 278.839 69.1609C280.946 71.268 282 73.8464 282 76.8961C282 80.7499 280.309 83.966 276.926 86.5444C274.015 88.7901 270.453 89.9129 266.238 89.9129C265.157 89.9129 263.189 89.7327 260.333 89.3723C257.644 89.0673 256.133 88.9148 255.8 88.9148C255.44 88.9148 255.024 88.9564 254.552 89.0396C253.748 89.1505 253.166 89.2059 252.806 89.2059C251.503 89.2059 250.477 88.8732 249.728 88.2079C248.592 87.182 247.538 85.574 246.568 83.3837C245.597 81.1658 245.112 79.2666 245.112 77.6863C245.112 75.1356 246.11 73.8603 248.106 73.8603C248.883 73.8603 249.59 74.1237 250.227 74.6504C250.893 75.1495 252.265 76.508 254.345 78.726C255.481 79.9459 256.424 80.7915 257.172 81.2628C257.921 81.7064 258.725 81.9282 259.584 81.9282C260.499 81.9282 261.234 81.6925 261.789 81.2212C262.343 80.7222 262.62 80.0706 262.62 79.2666C262.62 78.019 261.553 76.8823 259.418 75.8565C254.954 73.6662 251.725 71.4066 249.728 69.0778C247.76 66.7489 246.776 64.0596 246.776 61.0099C246.776 57.7106 247.788 54.8688 249.812 52.4845C252.695 49.0743 256.632 47.3693 261.622 47.3693Z" fill="black"/>
<path d="M224.44 19.9775C223.962 21.764 223.481 23.3864 222.998 24.8447C222.861 25.2549 222.638 25.6764 222.328 26.1094C222.109 26.4102 221.818 26.5583 221.453 26.5537C220.879 26.5446 220.428 25.9909 220.1 24.8926C219.977 24.4733 219.831 23.6917 219.662 22.5479C219.566 22.7484 219.507 22.8828 219.484 22.9512C219.247 23.5163 218.901 24.3936 218.445 25.583C218.377 25.7744 218.274 25.9271 218.138 26.041C217.946 26.3464 217.661 26.5059 217.283 26.5195C217.069 26.5286 216.843 26.3372 216.606 25.9453C216.356 25.5488 216.153 25.0384 215.998 24.4141C215.857 23.849 215.638 22.6185 215.342 20.7227C215.278 20.3125 215.246 19.9912 215.246 19.7588C215.246 19.5081 215.34 19.3008 215.526 19.1367C215.718 18.9681 215.946 18.8838 216.21 18.8838C216.702 18.8838 217.005 19.1276 217.119 19.6152C217.178 19.8704 217.229 20.1849 217.27 20.5586C217.324 21.0964 217.358 21.4131 217.372 21.5088C217.431 21.8643 217.522 22.4453 217.646 23.252C217.983 22.3268 218.37 21.1761 218.808 19.7998C218.994 19.2074 219.345 18.9111 219.86 18.9111C220.366 18.9111 220.699 19.2415 220.858 19.9023C220.972 20.3672 221.093 20.971 221.221 21.7139C221.408 22.7939 221.521 23.4365 221.562 23.6416C221.604 23.5003 221.961 22.1149 222.636 19.4854C222.736 19.0934 223.021 18.8975 223.49 18.8975C223.75 18.8975 223.978 18.9818 224.174 19.1504C224.374 19.319 224.475 19.5286 224.475 19.7793C224.475 19.8249 224.463 19.891 224.44 19.9775ZM228.952 25.4941C228.929 25.722 228.836 25.9089 228.672 26.0547C228.508 26.2005 228.305 26.2734 228.063 26.2734C227.603 26.2734 227.277 26.0365 227.086 25.5625C226.594 24.332 225.84 22.4954 224.823 20.0527C224.764 19.916 224.734 19.7861 224.734 19.6631C224.734 19.417 224.832 19.2096 225.028 19.041C225.229 18.8678 225.457 18.7812 225.712 18.7812C226.104 18.7812 226.384 18.9613 226.553 19.3213C226.812 19.8727 227.318 21.1624 228.07 23.1904C228.312 22.6755 228.645 21.8916 229.068 20.8389C229.196 20.488 229.394 19.998 229.663 19.3691C229.85 19.0046 230.132 18.8223 230.511 18.8223C230.766 18.8223 230.992 18.9066 231.188 19.0752C231.388 19.2438 231.488 19.4535 231.488 19.7041C231.488 19.8682 231.119 20.7705 230.381 22.4111C229.779 23.751 229.303 24.7786 228.952 25.4941ZM233.648 17.7832C233.357 17.7832 233.104 17.6852 232.89 17.4893C232.675 17.2933 232.568 17.054 232.568 16.7715C232.568 16.4889 232.675 16.2497 232.89 16.0537C233.104 15.8577 233.357 15.7598 233.648 15.7598C233.94 15.7598 234.191 15.8577 234.4 16.0537C234.615 16.2497 234.722 16.4889 234.722 16.7715C234.722 17.054 234.615 17.2933 234.4 17.4893C234.191 17.6852 233.94 17.7832 233.648 17.7832ZM234.229 22.7939C234.229 23.0537 234.236 23.4707 234.25 24.0449C234.268 24.6191 234.277 25.0361 234.277 25.2959C234.277 25.5602 234.188 25.779 234.011 25.9521C233.833 26.1208 233.607 26.2051 233.334 26.2051C233.061 26.2051 232.835 26.1208 232.657 25.9521C232.479 25.779 232.391 25.5602 232.391 25.2959C232.391 25.0361 232.382 24.6191 232.363 24.0449C232.35 23.4707 232.343 23.0537 232.343 22.7939C232.343 22.3883 232.366 21.8802 232.411 21.2695C232.457 20.6589 232.479 20.1507 232.479 19.7451C232.479 19.4808 232.568 19.2643 232.746 19.0957C232.924 18.9225 233.149 18.8359 233.423 18.8359C233.696 18.8359 233.922 18.9225 234.1 19.0957C234.277 19.2643 234.366 19.4808 234.366 19.7451C234.366 20.1507 234.343 20.6589 234.298 21.2695C234.252 21.8802 234.229 22.3883 234.229 22.7939ZM241.018 19.1299C241.077 17.5758 241.147 16.5026 241.229 15.9102C241.307 15.3724 241.603 15.1035 242.118 15.1035C242.387 15.1035 242.604 15.1901 242.768 15.3633C242.932 15.5365 243.014 15.7484 243.014 15.999C243.014 16.6598 242.961 17.6442 242.856 18.9521C242.756 20.2601 242.706 21.2445 242.706 21.9053C242.706 23.5186 242.758 24.5986 242.863 25.1455C242.877 25.2184 242.884 25.2845 242.884 25.3438C242.884 25.5944 242.793 25.8018 242.61 25.9658C242.428 26.1253 242.216 26.2051 241.975 26.2051C241.637 26.2051 241.387 26.0547 241.223 25.7539C240.913 25.9408 240.591 26.0798 240.259 26.1709C239.926 26.2666 239.582 26.3145 239.227 26.3145C238.206 26.3145 237.358 25.9886 236.684 25.3369C235.995 24.6715 235.651 23.8239 235.651 22.7939C235.651 21.568 235.998 20.5791 236.69 19.8271C237.383 19.0706 238.288 18.6924 239.404 18.6924C239.746 18.6924 240.051 18.7288 240.32 18.8018C240.589 18.8747 240.822 18.984 241.018 19.1299ZM240.881 21.2832C240.73 20.9961 240.535 20.7819 240.293 20.6406C240.051 20.4993 239.764 20.4287 239.432 20.4287C238.757 20.4287 238.251 20.6247 237.914 21.0166C237.577 21.404 237.408 21.9873 237.408 22.7666C237.408 23.2588 237.59 23.6803 237.955 24.0312C238.32 24.3822 238.743 24.5576 239.227 24.5576C239.577 24.5576 239.844 24.5166 240.026 24.4346C240.149 24.3799 240.359 24.234 240.655 23.9971C240.733 23.9333 240.808 23.8626 240.881 23.7852C240.872 23.5664 240.872 22.7324 240.881 21.2832ZM249.057 20.9961C248.605 20.9961 248.334 20.807 248.243 20.4287C248.061 20.3968 247.874 20.3809 247.683 20.3809C246.584 20.3809 246.035 20.5312 246.035 20.832C246.035 21.0098 246.366 21.249 247.026 21.5498C247.929 21.9645 248.539 22.2881 248.858 22.5205C249.519 22.999 249.85 23.5391 249.85 24.1406C249.85 24.9245 249.485 25.5192 248.756 25.9248C248.168 26.2484 247.446 26.4102 246.589 26.4102C245.983 26.4102 245.429 26.3167 244.928 26.1299C244.244 25.8747 243.902 25.4987 243.902 25.002C243.902 24.5462 244.174 24.3184 244.716 24.3184C244.925 24.3184 245.229 24.3844 245.625 24.5166C246.021 24.6488 246.327 24.7148 246.541 24.7148C247.466 24.7148 247.931 24.528 247.936 24.1543C247.936 23.9219 247.614 23.6644 246.972 23.3818C246.033 22.9671 245.431 22.6686 245.167 22.4863C244.524 22.0352 244.203 21.486 244.203 20.8389C244.203 19.9229 244.688 19.3053 245.659 18.9863C246.229 18.7995 247.095 18.7061 248.257 18.7061C248.713 18.7061 249.05 18.7653 249.269 18.8838C249.569 19.0433 249.72 19.3372 249.72 19.7656C249.72 20.5859 249.499 20.9961 249.057 20.9961ZM253.384 26.7109C253.078 26.7109 252.814 26.6152 252.591 26.4238C252.368 26.237 252.256 26.0251 252.256 25.7881C252.256 25.5465 252.368 25.3301 252.591 25.1387C252.814 24.9427 253.078 24.8447 253.384 24.8447C253.707 24.8447 253.974 24.9359 254.184 25.1182C254.393 25.3005 254.498 25.5238 254.498 25.7881C254.498 26.0296 254.389 26.2438 254.17 26.4307C253.951 26.6175 253.689 26.7109 253.384 26.7109ZM260.281 26.4307C259.279 26.4307 258.438 26.1458 257.759 25.5762C257.043 24.9746 256.686 24.1816 256.686 23.1973C256.686 22.2904 257.007 21.3538 257.649 20.3877C258.379 19.2848 259.226 18.7334 260.192 18.7334C260.666 18.7334 261.22 18.861 261.854 19.1162C262.624 19.4307 263.009 19.793 263.009 20.2031C263.009 20.4264 262.931 20.6247 262.776 20.7979C262.612 20.9847 262.4 21.0781 262.141 21.0781C261.945 21.0781 261.708 20.9733 261.43 20.7637C261.156 20.5495 260.744 20.4424 260.192 20.4424C259.841 20.4424 259.461 20.7865 259.051 21.4746C258.659 22.14 258.463 22.7142 258.463 23.1973C258.463 23.6758 258.636 24.0518 258.982 24.3252C259.311 24.585 259.743 24.7148 260.281 24.7148C260.587 24.7148 260.96 24.5986 261.402 24.3662C261.844 24.1338 262.125 24.0176 262.243 24.0176C262.489 24.0176 262.699 24.1064 262.872 24.2842C263.05 24.4619 263.139 24.6647 263.139 24.8926C263.139 25.248 262.751 25.6035 261.977 25.959C261.284 26.2734 260.719 26.4307 260.281 26.4307ZM267.145 26.4033C266.301 26.4033 265.577 26.1139 264.971 25.5352C264.305 24.9017 263.957 24.0563 263.925 22.999C263.893 21.9919 264.169 21.0941 264.752 20.3057C265.445 19.376 266.409 18.9111 267.644 18.9111C268.555 18.9111 269.28 19.2757 269.817 20.0049C270.3 20.6611 270.542 21.4746 270.542 22.4453C270.542 23.5026 270.259 24.4049 269.694 25.1523C269.061 25.9863 268.211 26.4033 267.145 26.4033ZM267.555 20.7158C266.994 20.7113 266.552 20.9665 266.229 21.4814C265.955 21.9144 265.818 22.4202 265.818 22.999C265.818 23.5459 265.973 23.9652 266.283 24.2568C266.529 24.4893 266.816 24.6055 267.145 24.6055C267.541 24.6055 267.885 24.471 268.177 24.2021C268.509 23.8877 268.687 23.4616 268.71 22.9238C268.769 21.4564 268.384 20.7204 267.555 20.7158ZM273.468 19.9502C274.156 19.1527 274.808 18.7539 275.423 18.7539C276.125 18.7539 276.64 19.0205 276.968 19.5537C277.246 19.3076 277.553 19.123 277.891 19C278.228 18.877 278.592 18.8154 278.984 18.8154C279.878 18.8154 280.484 19.2598 280.803 20.1484C280.867 20.3307 280.965 20.9482 281.097 22.001C281.224 22.7393 281.388 23.9697 281.589 25.6924C281.607 25.9521 281.518 26.1663 281.322 26.335C281.126 26.5036 280.896 26.5879 280.632 26.5879C280.108 26.5879 279.8 26.3281 279.709 25.8086C279.627 25.3392 279.543 24.6761 279.456 23.8193C279.365 22.8805 279.29 22.2152 279.23 21.8232C279.107 21.0075 278.95 20.5996 278.759 20.5996C278.654 20.5996 278.415 20.7044 278.041 20.9141C277.667 21.1237 277.394 21.3037 277.221 21.4541C277.221 21.9736 277.282 22.721 277.405 23.6963C277.533 24.6943 277.597 25.4417 277.597 25.9385C277.597 26.1982 277.508 26.4147 277.33 26.5879C277.152 26.7611 276.927 26.8477 276.653 26.8477C276.38 26.8477 276.154 26.7611 275.977 26.5879C275.799 26.4147 275.71 26.1982 275.71 25.9385C275.71 25.4189 275.653 24.6556 275.539 23.6484C275.43 22.6367 275.375 21.8711 275.375 21.3516C275.375 21.0599 275.35 20.8275 275.3 20.6543C274.771 20.9596 274.24 21.4678 273.707 22.1787C273.684 22.2106 273.646 22.2585 273.591 22.3223C273.573 23.2428 273.563 23.9652 273.563 24.4893C273.563 24.6169 273.559 24.79 273.55 25.0088C273.541 25.223 273.536 25.3825 273.536 25.4873C273.536 25.7334 273.436 25.9271 273.235 26.0684C273.053 26.2005 272.827 26.2666 272.559 26.2666C272.171 26.2666 271.909 26.098 271.772 25.7607C271.677 25.5329 271.629 25.1706 271.629 24.6738V22.1309C271.629 21.903 271.62 21.5703 271.602 21.1328C271.583 20.6908 271.574 20.3558 271.574 20.1279C271.574 19.7223 271.647 19.3555 271.793 19.0273C271.971 18.6172 272.221 18.4121 272.545 18.4121C272.8 18.4121 273.028 18.5124 273.229 18.7129C273.429 18.9089 273.529 19.1253 273.529 19.3623C273.529 19.2666 273.509 19.4626 273.468 19.9502Z" fill="#232323"/>
</svg>
