<svg width="510" height="87" viewBox="0 0 510 87" fill="none" xmlns="http://www.w3.org/2000/svg">
<g filter="url(#filter0_d_527_7064)">
<path d="M84.4111 20.1533L57.0684 75.4941C55.4004 78.9095 53.8118 81.2725 52.3027 82.583C50.7936 83.8538 48.8874 84.4893 46.584 84.4893C44.6777 84.4893 42.9701 84.0723 41.4609 83.2383C40.3092 82.6029 39.3958 81.8682 38.7207 81.0342C38.0853 80.1605 37.2712 78.6117 36.2783 76.3877L11.9141 22.7148C10.5638 19.6966 9.33268 17.6514 8.2207 16.5791C7.14844 15.4671 5.59961 14.7324 3.57422 14.375C1.19141 13.9382 0 12.4688 0 9.9668C0 6.90885 2.08496 4.56576 6.25488 2.9375C10.4248 1.26953 16.4017 0.435547 24.1855 0.435547C32.2871 0.435547 38.2441 1.05111 42.0566 2.28223C45.8691 3.51335 47.7754 5.4196 47.7754 8.00098C47.7754 9.66895 46.7428 11.2178 44.6777 12.6475C43.0892 13.7197 42.2949 14.7324 42.2949 15.6855C42.2949 16.5592 42.6523 17.8102 43.3672 19.4385L50.8135 36.2373C51.8857 38.6995 53.097 39.9307 54.4473 39.9307C55.7578 39.9307 56.9294 39.2754 57.9619 37.9648C58.9945 36.6543 60.3844 34.0729 62.1318 30.2207C65.2692 23.3105 67.096 19.2399 67.6123 18.0088C68.1286 16.738 68.3867 15.765 68.3867 15.0898C68.3867 13.7396 67.4535 12.5879 65.5869 11.6348C63.5218 10.5625 62.4893 9.19238 62.4893 7.52441C62.4893 2.7985 68.8236 0.435547 81.4922 0.435547C87.8066 0.435547 92.2546 0.951823 94.8359 1.98438C97.457 2.97721 98.7676 4.70475 98.7676 7.16699C98.7676 10.1058 97.0599 11.7936 93.6445 12.2305C91.222 12.5085 89.6533 12.9056 88.9385 13.4219C87.6676 14.3353 86.1585 16.5791 84.4111 20.1533Z" fill="#69FF49"/>
<path d="M84.4111 20.1533L57.0684 75.4941C55.4004 78.9095 53.8118 81.2725 52.3027 82.583C50.7936 83.8538 48.8874 84.4893 46.584 84.4893C44.6777 84.4893 42.9701 84.0723 41.4609 83.2383C40.3092 82.6029 39.3958 81.8682 38.7207 81.0342C38.0853 80.1605 37.2712 78.6117 36.2783 76.3877L11.9141 22.7148C10.5638 19.6966 9.33268 17.6514 8.2207 16.5791C7.14844 15.4671 5.59961 14.7324 3.57422 14.375C1.19141 13.9382 0 12.4688 0 9.9668C0 6.90885 2.08496 4.56576 6.25488 2.9375C10.4248 1.26953 16.4017 0.435547 24.1855 0.435547C32.2871 0.435547 38.2441 1.05111 42.0566 2.28223C45.8691 3.51335 47.7754 5.4196 47.7754 8.00098C47.7754 9.66895 46.7428 11.2178 44.6777 12.6475C43.0892 13.7197 42.2949 14.7324 42.2949 15.6855C42.2949 16.5592 42.6523 17.8102 43.3672 19.4385L50.8135 36.2373C51.8857 38.6995 53.097 39.9307 54.4473 39.9307C55.7578 39.9307 56.9294 39.2754 57.9619 37.9648C58.9945 36.6543 60.3844 34.0729 62.1318 30.2207C65.2692 23.3105 67.096 19.2399 67.6123 18.0088C68.1286 16.738 68.3867 15.765 68.3867 15.0898C68.3867 13.7396 67.4535 12.5879 65.5869 11.6348C63.5218 10.5625 62.4893 9.19238 62.4893 7.52441C62.4893 2.7985 68.8236 0.435547 81.4922 0.435547C87.8066 0.435547 92.2546 0.951823 94.8359 1.98438C97.457 2.97721 98.7676 4.70475 98.7676 7.16699C98.7676 10.1058 97.0599 11.7936 93.6445 12.2305C91.222 12.5085 89.6533 12.9056 88.9385 13.4219C87.6676 14.3353 86.1585 16.5791 84.4111 20.1533Z" fill="url(#paint0_radial_527_7064)" fill-opacity="0.2"/>
<path d="M134.51 27.7783V62.3887C134.51 65.1289 134.748 67.1344 135.225 68.4053C135.741 69.6761 136.754 70.8477 138.263 71.9199C139.494 72.7936 140.308 73.5482 140.705 74.1836C141.142 74.7793 141.36 75.5537 141.36 76.5068C141.36 81.6299 134.867 84.1914 121.881 84.1914C114.891 84.1914 109.351 83.6354 105.261 82.5234C103.871 82.1263 102.739 81.4313 101.865 80.4385C101.031 79.4456 100.614 78.3138 100.614 77.043C100.614 75.9707 100.833 75.1367 101.27 74.541C101.706 73.9453 102.818 72.9922 104.605 71.6816C105.837 70.7682 106.71 69.279 107.227 67.2139C107.743 65.1488 108.001 62.071 108.001 57.9805C108.001 56.6699 107.902 54.2275 107.703 50.6533C107.544 47.0394 107.425 44.9346 107.346 44.3389C107.107 42.7106 105.995 41.4596 104.01 40.5859C101.548 39.5137 100.316 37.9251 100.316 35.8203C100.316 33.3184 101.925 31.4518 105.142 30.2207C109.59 28.513 114.355 27.0635 119.438 25.8721C124.522 24.6807 128.453 24.085 131.233 24.085C133.418 24.085 134.51 25.3161 134.51 27.7783ZM122.715 1.68652C126.17 1.68652 128.91 2.3418 130.936 3.65234C132.961 4.92318 133.974 6.65072 133.974 8.83496C133.974 11.8929 132.445 14.3154 129.387 16.1025C124.542 18.9222 118.684 20.332 111.813 20.332C108.914 20.332 106.611 19.776 104.903 18.6641C102.6 17.2344 101.448 15.2487 101.448 12.707C101.448 9.29167 103.891 6.611 108.775 4.66504C113.74 2.67936 118.386 1.68652 122.715 1.68652Z" fill="#69FF49"/>
<path d="M134.51 27.7783V62.3887C134.51 65.1289 134.748 67.1344 135.225 68.4053C135.741 69.6761 136.754 70.8477 138.263 71.9199C139.494 72.7936 140.308 73.5482 140.705 74.1836C141.142 74.7793 141.36 75.5537 141.36 76.5068C141.36 81.6299 134.867 84.1914 121.881 84.1914C114.891 84.1914 109.351 83.6354 105.261 82.5234C103.871 82.1263 102.739 81.4313 101.865 80.4385C101.031 79.4456 100.614 78.3138 100.614 77.043C100.614 75.9707 100.833 75.1367 101.27 74.541C101.706 73.9453 102.818 72.9922 104.605 71.6816C105.837 70.7682 106.71 69.279 107.227 67.2139C107.743 65.1488 108.001 62.071 108.001 57.9805C108.001 56.6699 107.902 54.2275 107.703 50.6533C107.544 47.0394 107.425 44.9346 107.346 44.3389C107.107 42.7106 105.995 41.4596 104.01 40.5859C101.548 39.5137 100.316 37.9251 100.316 35.8203C100.316 33.3184 101.925 31.4518 105.142 30.2207C109.59 28.513 114.355 27.0635 119.438 25.8721C124.522 24.6807 128.453 24.085 131.233 24.085C133.418 24.085 134.51 25.3161 134.51 27.7783ZM122.715 1.68652C126.17 1.68652 128.91 2.3418 130.936 3.65234C132.961 4.92318 133.974 6.65072 133.974 8.83496C133.974 11.8929 132.445 14.3154 129.387 16.1025C124.542 18.9222 118.684 20.332 111.813 20.332C108.914 20.332 106.611 19.776 104.903 18.6641C102.6 17.2344 101.448 15.2487 101.448 12.707C101.448 9.29167 103.891 6.611 108.775 4.66504C113.74 2.67936 118.386 1.68652 122.715 1.68652Z" fill="url(#paint1_radial_527_7064)" fill-opacity="0.2"/>
<path d="M214.513 6.45215V60.8398C214.513 63.9375 214.632 65.9232 214.87 66.7969C215.148 67.6706 215.883 68.5244 217.074 69.3584C218.504 70.3512 219.457 71.2249 219.934 71.9795C220.45 72.734 220.708 73.6475 220.708 74.7197C220.708 77.8968 217.511 80.3193 211.117 81.9873C205.359 83.4567 199.6 84.1914 193.842 84.1914C192.571 84.1914 191.737 83.9928 191.34 83.5957C190.982 83.2383 190.744 82.3447 190.625 80.915C190.426 78.8896 189.712 77.877 188.48 77.877C187.805 77.877 186.753 78.4727 185.323 79.6641C181.272 82.9603 176.765 84.6084 171.801 84.6084C165.645 84.6084 160.105 82.3249 155.181 77.7578C152.282 75.0176 149.938 71.8604 148.151 68.2861C145.769 63.6396 144.577 58.9336 144.577 54.168C144.577 48.5684 146.126 43.1673 149.224 37.9648C152.083 33.1595 155.975 29.4661 160.899 26.8848C165.03 24.7402 169.1 23.668 173.111 23.668C177.718 23.668 181.848 24.7005 185.502 26.7656C186.098 27.0833 186.574 27.2422 186.932 27.2422C188.202 27.2422 188.838 25.5345 188.838 22.1191C188.838 20.6497 188.48 19.5378 187.766 18.7832C187.09 17.9889 185.859 17.3138 184.072 16.7578C181.57 15.9635 180.319 14.5736 180.319 12.5879C180.319 9.6888 183.199 7.42513 188.957 5.79688C199.124 2.97721 205.935 1.56738 209.39 1.56738C212.805 1.56738 214.513 3.19564 214.513 6.45215ZM182.166 36.416C179.585 36.416 177.539 37.7861 176.03 40.5264C174.005 44.18 172.992 48.9854 172.992 54.9424C172.992 60.3434 173.965 64.4141 175.911 67.1543C177.301 69.14 179.188 70.1328 181.57 70.1328C184.152 70.1328 186.018 68.6436 187.17 65.665C188.361 62.6468 188.957 57.8018 188.957 51.1299C188.957 45.014 188.262 40.9434 186.872 38.918C185.8 37.3294 184.231 36.4954 182.166 36.416Z" fill="#69FF49"/>
<path d="M214.513 6.45215V60.8398C214.513 63.9375 214.632 65.9232 214.87 66.7969C215.148 67.6706 215.883 68.5244 217.074 69.3584C218.504 70.3512 219.457 71.2249 219.934 71.9795C220.45 72.734 220.708 73.6475 220.708 74.7197C220.708 77.8968 217.511 80.3193 211.117 81.9873C205.359 83.4567 199.6 84.1914 193.842 84.1914C192.571 84.1914 191.737 83.9928 191.34 83.5957C190.982 83.2383 190.744 82.3447 190.625 80.915C190.426 78.8896 189.712 77.877 188.48 77.877C187.805 77.877 186.753 78.4727 185.323 79.6641C181.272 82.9603 176.765 84.6084 171.801 84.6084C165.645 84.6084 160.105 82.3249 155.181 77.7578C152.282 75.0176 149.938 71.8604 148.151 68.2861C145.769 63.6396 144.577 58.9336 144.577 54.168C144.577 48.5684 146.126 43.1673 149.224 37.9648C152.083 33.1595 155.975 29.4661 160.899 26.8848C165.03 24.7402 169.1 23.668 173.111 23.668C177.718 23.668 181.848 24.7005 185.502 26.7656C186.098 27.0833 186.574 27.2422 186.932 27.2422C188.202 27.2422 188.838 25.5345 188.838 22.1191C188.838 20.6497 188.48 19.5378 187.766 18.7832C187.09 17.9889 185.859 17.3138 184.072 16.7578C181.57 15.9635 180.319 14.5736 180.319 12.5879C180.319 9.6888 183.199 7.42513 188.957 5.79688C199.124 2.97721 205.935 1.56738 209.39 1.56738C212.805 1.56738 214.513 3.19564 214.513 6.45215ZM182.166 36.416C179.585 36.416 177.539 37.7861 176.03 40.5264C174.005 44.18 172.992 48.9854 172.992 54.9424C172.992 60.3434 173.965 64.4141 175.911 67.1543C177.301 69.14 179.188 70.1328 181.57 70.1328C184.152 70.1328 186.018 68.6436 187.17 65.665C188.361 62.6468 188.957 57.8018 188.957 51.1299C188.957 45.014 188.262 40.9434 186.872 38.918C185.8 37.3294 184.231 36.4954 182.166 36.416Z" fill="url(#paint2_radial_527_7064)" fill-opacity="0.2"/>
<path d="M259.31 34.748H266.696C267.927 34.748 268.801 34.9466 269.317 35.3438C269.873 35.7012 270.112 36.3167 270.032 37.1904L269.556 44.2793C269.476 45.709 269.258 46.6224 268.9 47.0195C268.543 47.377 267.749 47.5557 266.518 47.5557C266.24 47.5557 265.584 47.5159 264.552 47.4365C263.837 47.3968 263.241 47.377 262.765 47.377C261.097 47.377 259.965 47.9329 259.369 49.0449C258.773 50.1172 258.476 52.1823 258.476 55.2402C258.476 59.4102 258.932 62.9248 259.846 65.7842C260.203 67.0153 260.719 67.9287 261.395 68.5244C262.07 69.0804 263.182 69.5768 264.73 70.0137C268.225 71.0462 269.973 72.9723 269.973 75.792C269.973 78.7705 267.927 80.915 263.837 82.2256C259.786 83.5361 253.114 84.1914 243.821 84.1914C230.041 84.1914 223.15 81.4512 223.15 75.9707C223.15 74.6204 223.428 73.6276 223.984 72.9922C224.58 72.3568 225.851 71.6221 227.797 70.7881C229.902 69.835 231.173 68.0677 231.609 65.4863C232.285 61.5944 232.622 57.4245 232.622 52.9766C232.622 50.9909 232.265 49.6208 231.55 48.8662C230.875 48.0719 229.624 47.6947 227.797 47.7344C225.652 47.7344 224.282 47.6351 223.687 47.4365C223.091 47.1982 222.813 46.6621 222.853 45.8281L223.329 38.3223C223.409 37.0911 223.607 36.3366 223.925 36.0586C224.282 35.7409 225.235 35.5423 226.784 35.4629C228.254 35.3835 228.988 34.6686 228.988 33.3184C228.988 32.7624 228.452 31.4915 227.38 29.5059C225.553 26.2096 224.64 22.9134 224.64 19.6172C224.64 14.7721 226.308 10.8206 229.644 7.7627C234.528 3.27506 241.538 1.03125 250.672 1.03125C258.178 1.03125 264.174 2.7985 268.662 6.33301C272.117 9.07324 273.845 12.2305 273.845 15.8047C273.845 18.3861 272.991 20.5703 271.283 22.3574C269.576 24.1048 267.451 24.9785 264.909 24.9785C262.05 24.9785 259.31 23.9857 256.688 22C256.053 21.4837 254.544 19.915 252.161 17.2939C250.453 15.4671 248.746 14.5537 247.038 14.5537C245.926 14.5537 244.973 14.9508 244.179 15.7451C243.384 16.5394 242.987 17.5124 242.987 18.6641C242.987 21.8014 245.966 25.1572 251.923 28.7314C253.75 29.8434 254.981 30.7171 255.616 31.3525C256.291 31.988 256.887 32.8815 257.403 34.0332C257.681 34.5098 258.317 34.748 259.31 34.748Z" fill="#69FF49"/>
<path d="M259.31 34.748H266.696C267.927 34.748 268.801 34.9466 269.317 35.3438C269.873 35.7012 270.112 36.3167 270.032 37.1904L269.556 44.2793C269.476 45.709 269.258 46.6224 268.9 47.0195C268.543 47.377 267.749 47.5557 266.518 47.5557C266.24 47.5557 265.584 47.5159 264.552 47.4365C263.837 47.3968 263.241 47.377 262.765 47.377C261.097 47.377 259.965 47.9329 259.369 49.0449C258.773 50.1172 258.476 52.1823 258.476 55.2402C258.476 59.4102 258.932 62.9248 259.846 65.7842C260.203 67.0153 260.719 67.9287 261.395 68.5244C262.07 69.0804 263.182 69.5768 264.73 70.0137C268.225 71.0462 269.973 72.9723 269.973 75.792C269.973 78.7705 267.927 80.915 263.837 82.2256C259.786 83.5361 253.114 84.1914 243.821 84.1914C230.041 84.1914 223.15 81.4512 223.15 75.9707C223.15 74.6204 223.428 73.6276 223.984 72.9922C224.58 72.3568 225.851 71.6221 227.797 70.7881C229.902 69.835 231.173 68.0677 231.609 65.4863C232.285 61.5944 232.622 57.4245 232.622 52.9766C232.622 50.9909 232.265 49.6208 231.55 48.8662C230.875 48.0719 229.624 47.6947 227.797 47.7344C225.652 47.7344 224.282 47.6351 223.687 47.4365C223.091 47.1982 222.813 46.6621 222.853 45.8281L223.329 38.3223C223.409 37.0911 223.607 36.3366 223.925 36.0586C224.282 35.7409 225.235 35.5423 226.784 35.4629C228.254 35.3835 228.988 34.6686 228.988 33.3184C228.988 32.7624 228.452 31.4915 227.38 29.5059C225.553 26.2096 224.64 22.9134 224.64 19.6172C224.64 14.7721 226.308 10.8206 229.644 7.7627C234.528 3.27506 241.538 1.03125 250.672 1.03125C258.178 1.03125 264.174 2.7985 268.662 6.33301C272.117 9.07324 273.845 12.2305 273.845 15.8047C273.845 18.3861 272.991 20.5703 271.283 22.3574C269.576 24.1048 267.451 24.9785 264.909 24.9785C262.05 24.9785 259.31 23.9857 256.688 22C256.053 21.4837 254.544 19.915 252.161 17.2939C250.453 15.4671 248.746 14.5537 247.038 14.5537C245.926 14.5537 244.973 14.9508 244.179 15.7451C243.384 16.5394 242.987 17.5124 242.987 18.6641C242.987 21.8014 245.966 25.1572 251.923 28.7314C253.75 29.8434 254.981 30.7171 255.616 31.3525C256.291 31.988 256.887 32.8815 257.403 34.0332C257.681 34.5098 258.317 34.748 259.31 34.748Z" fill="url(#paint3_radial_527_7064)" fill-opacity="0.2"/>
<path d="M308.693 27.0635V59.3506C308.693 66.2607 310.977 69.7158 315.544 69.7158C316.696 69.7158 317.827 69.3981 318.939 68.7627C320.051 68.0876 320.826 67.2734 321.263 66.3203C322.136 64.4141 322.573 60.1647 322.573 53.5723C322.573 47.0592 322.355 42.6113 321.918 40.2285C321.759 39.2357 321.481 38.5208 321.084 38.084C320.687 37.6074 319.932 37.0713 318.82 36.4756C316.557 35.2842 315.425 33.7751 315.425 31.9482C315.425 29.486 317.371 27.7783 321.263 26.8252C328.649 24.9984 335.937 24.085 343.125 24.085C347.136 24.085 349.142 26.2096 349.142 30.459C349.142 30.8958 349.122 31.7894 349.082 33.1396C349.003 35.0459 348.943 37.3691 348.903 40.1094V66.3799C348.903 67.7301 350.055 68.9613 352.358 70.0732C354.304 71.0264 355.277 72.4163 355.277 74.2432C355.277 77.8174 351.048 80.5775 342.589 82.5234C337.625 83.6751 332.819 84.251 328.173 84.251C326.267 84.251 324.956 84.0326 324.241 83.5957C323.566 83.1589 323.169 82.305 323.05 81.0342C322.851 78.5719 322.097 77.3408 320.786 77.3408C320.31 77.3408 319.873 77.46 319.476 77.6982C319.078 77.8968 317.867 78.6911 315.842 80.0811C311.831 82.8213 307.522 84.1914 302.915 84.1914C295.29 84.1914 289.909 81.9873 286.771 77.5791C284.111 73.8857 282.78 67.6706 282.78 58.9336C282.78 55.6771 282.8 52.8971 282.84 50.5938C282.84 49.2435 282.84 48.3301 282.84 47.8535C282.84 44.4382 282.522 41.9362 281.887 40.3477C281.291 38.7194 280.179 37.4486 278.551 36.5352C277.002 35.7409 276.009 35.1055 275.572 34.6289C275.175 34.1523 274.977 33.4971 274.977 32.6631C274.977 29.6449 277.26 27.6393 281.827 26.6465C289.611 24.9388 297.395 24.085 305.179 24.085C307.522 24.085 308.693 25.0778 308.693 27.0635Z" fill="#69FF49"/>
<path d="M308.693 27.0635V59.3506C308.693 66.2607 310.977 69.7158 315.544 69.7158C316.696 69.7158 317.827 69.3981 318.939 68.7627C320.051 68.0876 320.826 67.2734 321.263 66.3203C322.136 64.4141 322.573 60.1647 322.573 53.5723C322.573 47.0592 322.355 42.6113 321.918 40.2285C321.759 39.2357 321.481 38.5208 321.084 38.084C320.687 37.6074 319.932 37.0713 318.82 36.4756C316.557 35.2842 315.425 33.7751 315.425 31.9482C315.425 29.486 317.371 27.7783 321.263 26.8252C328.649 24.9984 335.937 24.085 343.125 24.085C347.136 24.085 349.142 26.2096 349.142 30.459C349.142 30.8958 349.122 31.7894 349.082 33.1396C349.003 35.0459 348.943 37.3691 348.903 40.1094V66.3799C348.903 67.7301 350.055 68.9613 352.358 70.0732C354.304 71.0264 355.277 72.4163 355.277 74.2432C355.277 77.8174 351.048 80.5775 342.589 82.5234C337.625 83.6751 332.819 84.251 328.173 84.251C326.267 84.251 324.956 84.0326 324.241 83.5957C323.566 83.1589 323.169 82.305 323.05 81.0342C322.851 78.5719 322.097 77.3408 320.786 77.3408C320.31 77.3408 319.873 77.46 319.476 77.6982C319.078 77.8968 317.867 78.6911 315.842 80.0811C311.831 82.8213 307.522 84.1914 302.915 84.1914C295.29 84.1914 289.909 81.9873 286.771 77.5791C284.111 73.8857 282.78 67.6706 282.78 58.9336C282.78 55.6771 282.8 52.8971 282.84 50.5938C282.84 49.2435 282.84 48.3301 282.84 47.8535C282.84 44.4382 282.522 41.9362 281.887 40.3477C281.291 38.7194 280.179 37.4486 278.551 36.5352C277.002 35.7409 276.009 35.1055 275.572 34.6289C275.175 34.1523 274.977 33.4971 274.977 32.6631C274.977 29.6449 277.26 27.6393 281.827 26.6465C289.611 24.9388 297.395 24.085 305.179 24.085C307.522 24.085 308.693 25.0778 308.693 27.0635Z" fill="url(#paint4_radial_527_7064)" fill-opacity="0.2"/>
<path d="M392.688 23.668C399.757 23.668 405.992 25.4352 411.393 28.9697C416.516 32.3454 419.077 36.5352 419.077 41.5391C419.077 44.9941 417.886 47.7939 415.503 49.9385C413.279 51.9639 410.598 52.9766 407.461 52.9766C404.165 52.9766 401.683 51.7852 400.015 49.4023C399.498 48.6478 398.744 46.7217 397.751 43.624C396.679 40.2881 394.633 38.6201 391.615 38.6201C389.431 38.6201 387.584 39.5732 386.075 41.4795C384.606 43.3857 383.871 45.7288 383.871 48.5088C383.871 53.2744 385.579 57.5039 388.994 61.1973C391.774 64.1758 395.269 65.665 399.479 65.665C401.464 65.665 403.132 65.5062 404.482 65.1885C405.833 64.8311 407.6 64.1361 409.784 63.1035C410.34 62.8255 410.956 62.6865 411.631 62.6865C412.981 62.6865 414.173 63.3219 415.205 64.5928C416.238 65.8636 416.754 67.3529 416.754 69.0605C416.754 70.8477 416.019 72.734 414.55 74.7197C413.08 76.6657 411.154 78.3734 408.771 79.8428C403.609 83.0199 397.513 84.6084 390.483 84.6084C382.302 84.6084 375.333 82.2256 369.574 77.46C362.188 71.4235 358.494 63.7389 358.494 54.4062C358.494 45.431 361.929 38.0046 368.8 32.127C375.353 26.4876 383.315 23.668 392.688 23.668Z" fill="#69FF49"/>
<path d="M392.688 23.668C399.757 23.668 405.992 25.4352 411.393 28.9697C416.516 32.3454 419.077 36.5352 419.077 41.5391C419.077 44.9941 417.886 47.7939 415.503 49.9385C413.279 51.9639 410.598 52.9766 407.461 52.9766C404.165 52.9766 401.683 51.7852 400.015 49.4023C399.498 48.6478 398.744 46.7217 397.751 43.624C396.679 40.2881 394.633 38.6201 391.615 38.6201C389.431 38.6201 387.584 39.5732 386.075 41.4795C384.606 43.3857 383.871 45.7288 383.871 48.5088C383.871 53.2744 385.579 57.5039 388.994 61.1973C391.774 64.1758 395.269 65.665 399.479 65.665C401.464 65.665 403.132 65.5062 404.482 65.1885C405.833 64.8311 407.6 64.1361 409.784 63.1035C410.34 62.8255 410.956 62.6865 411.631 62.6865C412.981 62.6865 414.173 63.3219 415.205 64.5928C416.238 65.8636 416.754 67.3529 416.754 69.0605C416.754 70.8477 416.019 72.734 414.55 74.7197C413.08 76.6657 411.154 78.3734 408.771 79.8428C403.609 83.0199 397.513 84.6084 390.483 84.6084C382.302 84.6084 375.333 82.2256 369.574 77.46C362.188 71.4235 358.494 63.7389 358.494 54.4062C358.494 45.431 361.929 38.0046 368.8 32.127C375.353 26.4876 383.315 23.668 392.688 23.668Z" fill="url(#paint5_radial_527_7064)" fill-opacity="0.2"/>
<path d="M456.606 4.60547L456.07 23.251C456.031 25.1175 456.011 27.8577 456.011 31.4717C456.011 35.4827 456.07 37.8457 456.189 38.5605C456.467 40.1888 457.301 41.0029 458.691 41.0029C459.883 41.0029 461.71 40.2484 464.172 38.7393C466.634 37.1904 467.865 36.0387 467.865 35.2842C467.865 34.8473 467.428 34.0531 466.555 32.9014C465.919 32.0674 465.602 31.2731 465.602 30.5186C465.602 26.2295 470.883 24.085 481.447 24.085C486.928 24.085 491.257 24.641 494.434 25.7529C495.704 26.1898 496.757 26.9443 497.591 28.0166C498.425 29.0889 498.842 30.2406 498.842 31.4717C498.842 33.2588 497.988 34.5098 496.28 35.2246C495.923 35.3835 494.771 35.6416 492.825 35.999C491.078 36.3167 488.814 37.4089 486.034 39.2754C483.254 41.1022 481.864 42.4326 481.864 43.2666C481.864 43.8226 483.532 46.4437 486.868 51.1299C490.244 55.7764 493.381 59.8271 496.28 63.2822C498.147 65.5459 499.596 67.1344 500.629 68.0479C501.701 68.9613 503.171 69.9342 505.037 70.9668C507.896 72.5156 509.326 74.2829 509.326 76.2686C509.326 78.3734 508.413 80.0215 506.586 81.2129C504.799 82.4043 502.337 83 499.199 83H479.898C477.476 82.9603 475.59 82.0667 474.239 80.3193L464.351 67.6309C461.729 64.2949 460.121 62.3092 459.525 61.6738C458.969 61.0384 458.493 60.7207 458.096 60.7207C457.619 60.7207 457.301 61.0781 457.143 61.793C456.984 62.5078 456.904 63.8581 456.904 65.8438C456.904 67.6309 457.103 68.9414 457.5 69.7754C457.897 70.5697 458.811 71.5426 460.24 72.6943C461.273 73.5283 461.789 74.7594 461.789 76.3877C461.789 79.1676 460.32 81.1732 457.381 82.4043C454.442 83.6354 449.597 84.251 442.846 84.251C434.903 84.251 429.74 83.9134 427.357 83.2383C426.007 82.8411 424.855 82.0469 423.902 80.8555C422.949 79.6244 422.473 78.3337 422.473 76.9834C422.473 75.4743 423.307 74.1637 424.975 73.0518C426.404 72.1383 427.318 71.4434 427.715 70.9668C428.112 70.4902 428.43 69.7357 428.668 68.7031C429.581 63.1432 430.018 54.5651 429.979 42.9688V29.9229C429.979 25.4749 429.74 22.6354 429.264 21.4043C428.827 20.1732 427.715 19.4385 425.928 19.2002C422.671 18.7633 421.043 17.4131 421.043 15.1494C421.043 13.6403 421.758 12.29 423.188 11.0986C424.617 9.86751 426.96 8.65625 430.217 7.46484C440.622 3.61263 448.326 1.68652 453.33 1.68652C455.594 1.68652 456.686 2.65951 456.606 4.60547Z" fill="#69FF49"/>
<path d="M456.606 4.60547L456.07 23.251C456.031 25.1175 456.011 27.8577 456.011 31.4717C456.011 35.4827 456.07 37.8457 456.189 38.5605C456.467 40.1888 457.301 41.0029 458.691 41.0029C459.883 41.0029 461.71 40.2484 464.172 38.7393C466.634 37.1904 467.865 36.0387 467.865 35.2842C467.865 34.8473 467.428 34.0531 466.555 32.9014C465.919 32.0674 465.602 31.2731 465.602 30.5186C465.602 26.2295 470.883 24.085 481.447 24.085C486.928 24.085 491.257 24.641 494.434 25.7529C495.704 26.1898 496.757 26.9443 497.591 28.0166C498.425 29.0889 498.842 30.2406 498.842 31.4717C498.842 33.2588 497.988 34.5098 496.28 35.2246C495.923 35.3835 494.771 35.6416 492.825 35.999C491.078 36.3167 488.814 37.4089 486.034 39.2754C483.254 41.1022 481.864 42.4326 481.864 43.2666C481.864 43.8226 483.532 46.4437 486.868 51.1299C490.244 55.7764 493.381 59.8271 496.28 63.2822C498.147 65.5459 499.596 67.1344 500.629 68.0479C501.701 68.9613 503.171 69.9342 505.037 70.9668C507.896 72.5156 509.326 74.2829 509.326 76.2686C509.326 78.3734 508.413 80.0215 506.586 81.2129C504.799 82.4043 502.337 83 499.199 83H479.898C477.476 82.9603 475.59 82.0667 474.239 80.3193L464.351 67.6309C461.729 64.2949 460.121 62.3092 459.525 61.6738C458.969 61.0384 458.493 60.7207 458.096 60.7207C457.619 60.7207 457.301 61.0781 457.143 61.793C456.984 62.5078 456.904 63.8581 456.904 65.8438C456.904 67.6309 457.103 68.9414 457.5 69.7754C457.897 70.5697 458.811 71.5426 460.24 72.6943C461.273 73.5283 461.789 74.7594 461.789 76.3877C461.789 79.1676 460.32 81.1732 457.381 82.4043C454.442 83.6354 449.597 84.251 442.846 84.251C434.903 84.251 429.74 83.9134 427.357 83.2383C426.007 82.8411 424.855 82.0469 423.902 80.8555C422.949 79.6244 422.473 78.3337 422.473 76.9834C422.473 75.4743 423.307 74.1637 424.975 73.0518C426.404 72.1383 427.318 71.4434 427.715 70.9668C428.112 70.4902 428.43 69.7357 428.668 68.7031C429.581 63.1432 430.018 54.5651 429.979 42.9688V29.9229C429.979 25.4749 429.74 22.6354 429.264 21.4043C428.827 20.1732 427.715 19.4385 425.928 19.2002C422.671 18.7633 421.043 17.4131 421.043 15.1494C421.043 13.6403 421.758 12.29 423.188 11.0986C424.617 9.86751 426.96 8.65625 430.217 7.46484C440.622 3.61263 448.326 1.68652 453.33 1.68652C455.594 1.68652 456.686 2.65951 456.606 4.60547Z" fill="url(#paint6_radial_527_7064)" fill-opacity="0.2"/>
</g>
<defs>
<filter id="filter0_d_527_7064" x="0" y="0.435547" width="509.326" height="86.1729" filterUnits="userSpaceOnUse" color-interpolation-filters="sRGB">
<feFlood flood-opacity="0" result="BackgroundImageFix"/>
<feColorMatrix in="SourceAlpha" type="matrix" values="0 0 0 0 0 0 0 0 0 0 0 0 0 0 0 0 0 0 127 0" result="hardAlpha"/>
<feOffset dy="2"/>
<feComposite in2="hardAlpha" operator="out"/>
<feColorMatrix type="matrix" values="0 0 0 0 0.103089 0 0 0 0 0.583333 0 0 0 0 0 0 0 0 1 0"/>
<feBlend mode="normal" in2="BackgroundImageFix" result="effect1_dropShadow_527_7064"/>
<feBlend mode="normal" in="SourceGraphic" in2="effect1_dropShadow_527_7064" result="shape"/>
</filter>
<radialGradient id="paint0_radial_527_7064" cx="0" cy="0" r="1" gradientUnits="userSpaceOnUse" gradientTransform="translate(255 41) rotate(90) scale(70 255)">
<stop stop-color="white"/>
<stop offset="1" stop-color="#BDFB2A" stop-opacity="0"/>
</radialGradient>
<radialGradient id="paint1_radial_527_7064" cx="0" cy="0" r="1" gradientUnits="userSpaceOnUse" gradientTransform="translate(255 41) rotate(90) scale(70 255)">
<stop stop-color="white"/>
<stop offset="1" stop-color="#BDFB2A" stop-opacity="0"/>
</radialGradient>
<radialGradient id="paint2_radial_527_7064" cx="0" cy="0" r="1" gradientUnits="userSpaceOnUse" gradientTransform="translate(255 41) rotate(90) scale(70 255)">
<stop stop-color="white"/>
<stop offset="1" stop-color="#BDFB2A" stop-opacity="0"/>
</radialGradient>
<radialGradient id="paint3_radial_527_7064" cx="0" cy="0" r="1" gradientUnits="userSpaceOnUse" gradientTransform="translate(255 41) rotate(90) scale(70 255)">
<stop stop-color="white"/>
<stop offset="1" stop-color="#BDFB2A" stop-opacity="0"/>
</radialGradient>
<radialGradient id="paint4_radial_527_7064" cx="0" cy="0" r="1" gradientUnits="userSpaceOnUse" gradientTransform="translate(255 41) rotate(90) scale(70 255)">
<stop stop-color="white"/>
<stop offset="1" stop-color="#BDFB2A" stop-opacity="0"/>
</radialGradient>
<radialGradient id="paint5_radial_527_7064" cx="0" cy="0" r="1" gradientUnits="userSpaceOnUse" gradientTransform="translate(255 41) rotate(90) scale(70 255)">
<stop stop-color="white"/>
<stop offset="1" stop-color="#BDFB2A" stop-opacity="0"/>
</radialGradient>
<radialGradient id="paint6_radial_527_7064" cx="0" cy="0" r="1" gradientUnits="userSpaceOnUse" gradientTransform="translate(255 41) rotate(90) scale(70 255)">
<stop stop-color="white"/>
<stop offset="1" stop-color="#BDFB2A" stop-opacity="0"/>
</radialGradient>
</defs>
</svg>
